<svg version="1.1" xmlns="http://www.w3.org/2000/svg" xmlns:xlink="http://www.w3.org/1999/xlink" width="800" height="800" viewBox="0,0,800,800"><g fill="#000000" fill-rule="nonzero" stroke="none" stroke-width="none" stroke-linecap="butt" stroke-linejoin="miter" stroke-miterlimit="10" stroke-dasharray="" stroke-dashoffset="0" font-family="none" font-weight="none" font-size="none" text-anchor="none" style="mix-blend-mode: normal"><path d="M0,800v-800h800v800z" stroke="none" stroke-width="1"/><path d="M20,400c0,-209.8682 170.1318,-380 380,-380c209.8682,0 380,170.1318 380,380c0,209.8682 -170.1318,380 -380,380c-209.8682,0 -380,-170.1318 -380,-380z" data-paper-data="{&quot;fillable&quot;:true}" stroke="#2a2a3a" stroke-width="1.5"/><path d="M778,400l-0.20239,12.36781l-0.60694,12.35457l-1.01085,12.3281l-1.41367,12.28842l-1.81498,12.23559l-2.21434,12.16965l-2.61134,12.09069l-3.00554,11.99877l-31.87555,-8.54103l2.74315,-10.95126l2.38336,-11.03515l2.02103,-11.10722l1.65653,-11.1674l1.29025,-11.21562l0.9226,-11.25183l0.55395,-11.276l0.18472,-11.28808z" data-paper-data="{&quot;fillable&quot;:true}" stroke="#2a2a3a" stroke-width="1.5"/><path d="M765.11996,497.8336l-3.39652,11.89401l-3.78386,11.77651l-4.16715,11.6464l-4.54598,11.50382l-4.91994,11.34892l-5.28863,11.18187l-5.65166,11.00284l-6.00864,10.81203l-28.57884,-16.5l5.48407,-9.86813l5.15826,-10.04228l4.82692,-10.20567l4.49042,-10.35814l4.14911,-10.49952l3.80335,-10.62965l3.45352,-10.7484l3.09999,-10.85564z" data-paper-data="{&quot;fillable&quot;:true}" stroke="#2a2a3a" stroke-width="1.5"/><path d="M727.3576,589l-6.35918,10.60965l-6.70291,10.3959l-7.03947,10.17102l-7.36848,9.93525l-7.68961,9.68884l-8.0025,9.43206l-8.30683,9.16517l-8.60226,8.88847l-23.33452,-23.33452l7.85127,-8.1125l7.58163,-8.36504l7.30387,-8.60862l7.0183,-8.84299l6.7252,-9.06789l6.42491,-9.28308l6.11774,-9.48832l5.80401,-9.68341z" data-paper-data="{&quot;fillable&quot;:true}" stroke="#2a2a3a" stroke-width="1.5"/><path d="M667.28636,667.28636l-8.88847,8.60226l-9.16517,8.30683l-9.43206,8.0025l-9.68884,7.68961l-9.93525,7.36848l-10.17102,7.03947l-10.3959,6.70291l-10.60965,6.35918l-16.5,-28.57884l9.68341,-5.80401l9.48832,-6.11774l9.28308,-6.42491l9.06789,-6.7252l8.84299,-7.0183l8.60862,-7.30387l8.36504,-7.58163l8.1125,-7.85127z" data-paper-data="{&quot;fillable&quot;:true}" stroke="#2a2a3a" stroke-width="1.5"/><path d="M589,727.3576l-10.81203,6.00864l-11.00284,5.65166l-11.18187,5.28863l-11.34892,4.91994l-11.50382,4.54598l-11.6464,4.16715l-11.77651,3.78386l-11.89401,3.39652l-8.54103,-31.87555l10.85564,-3.09999l10.7484,-3.45352l10.62965,-3.80335l10.49952,-4.14911l10.35814,-4.49042l10.20567,-4.82692l10.04228,-5.15826l9.86813,-5.48407z" data-paper-data="{&quot;fillable&quot;:true}" stroke="#2a2a3a" stroke-width="1.5"/><path d="M497.8336,765.11996l-11.99877,3.00554l-12.09069,2.61134l-12.16965,2.21434l-12.23559,1.81498l-12.28842,1.41367l-12.3281,1.01085l-12.35457,0.60694l-12.36781,0.20239v-33l11.28808,-0.18472l11.276,-0.55395l11.25183,-0.9226l11.21562,-1.29025l11.1674,-1.65653l11.10722,-2.02103l11.03515,-2.38336l10.95126,-2.74315z" data-paper-data="{&quot;fillable&quot;:true}" stroke="#2a2a3a" stroke-width="1.5"/><path d="M400,778l-12.36781,-0.20239l-12.35457,-0.60694l-12.3281,-1.01085l-12.28842,-1.41367l-12.23559,-1.81498l-12.16965,-2.21434l-12.09069,-2.61134l-11.99877,-3.00554l8.54103,-31.87555l10.95126,2.74315l11.03515,2.38336l11.10722,2.02103l11.1674,1.65653l11.21562,1.29025l11.25183,0.9226l11.276,0.55395l11.28808,0.18472z" data-paper-data="{&quot;fillable&quot;:true}" stroke="#2a2a3a" stroke-width="1.5"/><path d="M302.1664,765.11996l-11.89401,-3.39652l-11.77651,-3.78386l-11.6464,-4.16715l-11.50382,-4.54598l-11.34892,-4.91994l-11.18187,-5.28863l-11.00284,-5.65166l-10.81203,-6.00864l16.5,-28.57884l9.86813,5.48407l10.04228,5.15826l10.20567,4.82692l10.35814,4.49042l10.49952,4.14911l10.62965,3.80335l10.7484,3.45352l10.85564,3.09999z" data-paper-data="{&quot;fillable&quot;:true}" stroke="#2a2a3a" stroke-width="1.5"/><path d="M211,727.3576l-10.60965,-6.35918l-10.3959,-6.70291l-10.17102,-7.03947l-9.93525,-7.36848l-9.68884,-7.68961l-9.43206,-8.0025l-9.16517,-8.30683l-8.88847,-8.60226l23.33452,-23.33452l8.1125,7.85127l8.36504,7.58163l8.60862,7.30387l8.84299,7.0183l9.06789,6.7252l9.28308,6.42491l9.48832,6.11774l9.68341,5.80401z" data-paper-data="{&quot;fillable&quot;:true}" stroke="#2a2a3a" stroke-width="1.5"/><path d="M132.71364,667.28636l-8.60226,-8.88847l-8.30683,-9.16517l-8.0025,-9.43206l-7.68961,-9.68884l-7.36848,-9.93525l-7.03947,-10.17102l-6.70291,-10.3959l-6.35918,-10.60965l28.57884,-16.5l5.80401,9.68341l6.11774,9.48832l6.42491,9.28308l6.7252,9.06789l7.0183,8.84299l7.30387,8.60862l7.58163,8.36504l7.85127,8.1125z" data-paper-data="{&quot;fillable&quot;:true}" stroke="#2a2a3a" stroke-width="1.5"/><path d="M72.6424,589l-6.00864,-10.81203l-5.65166,-11.00284l-5.28863,-11.18187l-4.91994,-11.34892l-4.54598,-11.50382l-4.16715,-11.6464l-3.78386,-11.77651l-3.39652,-11.89401l31.87555,-8.54103l3.09999,10.85564l3.45352,10.7484l3.80335,10.62965l4.14911,10.49952l4.49042,10.35814l4.82692,10.20567l5.15826,10.04228l5.48407,9.86813z" data-paper-data="{&quot;fillable&quot;:true}" stroke="#2a2a3a" stroke-width="1.5"/><path d="M34.88004,497.8336l-3.00554,-11.99877l-2.61134,-12.09069l-2.21434,-12.16965l-1.81498,-12.23559l-1.41367,-12.28842l-1.01085,-12.3281l-0.60694,-12.35457l-0.20239,-12.36781h33l0.18472,11.28808l0.55395,11.276l0.9226,11.25183l1.29025,11.21562l1.65653,11.1674l2.02103,11.10722l2.38336,11.03515l2.74315,10.95126z" data-paper-data="{&quot;fillable&quot;:true}" stroke="#2a2a3a" stroke-width="1.5"/><path d="M22,400l0.20239,-12.36781l0.60694,-12.35457l1.01085,-12.3281l1.41367,-12.28842l1.81498,-12.23559l2.21434,-12.16965l2.61134,-12.09069l3.00554,-11.99877l31.87555,8.54103l-2.74315,10.95126l-2.38336,11.03515l-2.02103,11.10722l-1.65653,11.1674l-1.29025,11.21562l-0.9226,11.25183l-0.55395,11.276l-0.18472,11.28808z" data-paper-data="{&quot;fillable&quot;:true}" stroke="#2a2a3a" stroke-width="1.5"/><path d="M34.88004,302.1664l3.39652,-11.89401l3.78386,-11.77651l4.16715,-11.6464l4.54598,-11.50382l4.91994,-11.34892l5.28863,-11.18187l5.65166,-11.00284l6.00864,-10.81203l28.57884,16.5l-5.48407,9.86813l-5.15826,10.04228l-4.82692,10.20567l-4.49042,10.35814l-4.14911,10.49952l-3.80335,10.62965l-3.45352,10.7484l-3.09999,10.85564z" data-paper-data="{&quot;fillable&quot;:true}" stroke="#2a2a3a" stroke-width="1.5"/><path d="M72.6424,211l6.35918,-10.60965l6.70291,-10.3959l7.03947,-10.17102l7.36848,-9.93525l7.68961,-9.68884l8.0025,-9.43206l8.30683,-9.16517l8.60226,-8.88847l23.33452,23.33452l-7.85127,8.1125l-7.58163,8.36504l-7.30387,8.60862l-7.0183,8.84299l-6.7252,9.06789l-6.42491,9.28308l-6.11774,9.48832l-5.80401,9.68341z" data-paper-data="{&quot;fillable&quot;:true}" stroke="#2a2a3a" stroke-width="1.5"/><path d="M132.71364,132.71364l8.88847,-8.60226l9.16517,-8.30683l9.43206,-8.0025l9.68884,-7.68961l9.93525,-7.36848l10.17102,-7.03947l10.3959,-6.70291l10.60965,-6.35918l16.5,28.57884l-9.68341,5.80401l-9.48832,6.11774l-9.28308,6.42491l-9.06789,6.7252l-8.84299,7.0183l-8.60862,7.30387l-8.36504,7.58163l-8.1125,7.85127z" data-paper-data="{&quot;fillable&quot;:true}" stroke="#2a2a3a" stroke-width="1.5"/><path d="M211,72.6424l10.81203,-6.00864l11.00284,-5.65166l11.18187,-5.28863l11.34892,-4.91994l11.50382,-4.54598l11.6464,-4.16715l11.77651,-3.78386l11.89401,-3.39652l8.54103,31.87555l-10.85564,3.09999l-10.7484,3.45352l-10.62965,3.80335l-10.49952,4.14911l-10.35814,4.49042l-10.20567,4.82692l-10.04228,5.15826l-9.86813,5.48407z" data-paper-data="{&quot;fillable&quot;:true}" stroke="#2a2a3a" stroke-width="1.5"/><path d="M302.1664,34.88004l11.99877,-3.00554l12.09069,-2.61134l12.16965,-2.21434l12.23559,-1.81498l12.28842,-1.41367l12.3281,-1.01085l12.35457,-0.60694l12.36781,-0.20239v33l-11.28808,0.18472l-11.276,0.55395l-11.25183,0.9226l-11.21562,1.29025l-11.1674,1.65653l-11.10722,2.02103l-11.03515,2.38336l-10.95126,2.74315z" data-paper-data="{&quot;fillable&quot;:true}" stroke="#2a2a3a" stroke-width="1.5"/><path d="M400,22l12.36781,0.20239l12.35457,0.60694l12.3281,1.01085l12.28842,1.41367l12.23559,1.81498l12.16965,2.21434l12.09069,2.61134l11.99877,3.00554l-8.54103,31.87555l-10.95126,-2.74315l-11.03515,-2.38336l-11.10722,-2.02103l-11.1674,-1.65653l-11.21562,-1.29025l-11.25183,-0.9226l-11.276,-0.55395l-11.28808,-0.18472z" data-paper-data="{&quot;fillable&quot;:true}" stroke="#2a2a3a" stroke-width="1.5"/><path d="M497.8336,34.88004l11.89401,3.39652l11.77651,3.78386l11.6464,4.16715l11.50382,4.54598l11.34892,4.91994l11.18187,5.28863l11.00284,5.65166l10.81203,6.00864l-16.5,28.57884l-9.86813,-5.48407l-10.04228,-5.15826l-10.20567,-4.82692l-10.35814,-4.49042l-10.49952,-4.14911l-10.62965,-3.80335l-10.7484,-3.45352l-10.85564,-3.09999z" data-paper-data="{&quot;fillable&quot;:true}" stroke="#2a2a3a" stroke-width="1.5"/><path d="M589,72.6424l10.60965,6.35918l10.3959,6.70291l10.17102,7.03947l9.93525,7.36848l9.68884,7.68961l9.43206,8.0025l9.16517,8.30683l8.88847,8.60226l-23.33452,23.33452l-8.1125,-7.85127l-8.36504,-7.58163l-8.60862,-7.30387l-8.84299,-7.0183l-9.06789,-6.7252l-9.28308,-6.42491l-9.48832,-6.11774l-9.68341,-5.80401z" data-paper-data="{&quot;fillable&quot;:true}" stroke="#2a2a3a" stroke-width="1.5"/><path d="M667.28636,132.71364l8.60226,8.88847l8.30683,9.16517l8.0025,9.43206l7.68961,9.68884l7.36848,9.93525l7.03947,10.17102l6.70291,10.3959l6.35918,10.60965l-28.57884,16.5l-5.80401,-9.68341l-6.11774,-9.48832l-6.42491,-9.28308l-6.7252,-9.06789l-7.0183,-8.84299l-7.30387,-8.60862l-7.58163,-8.36504l-7.85127,-8.1125z" data-paper-data="{&quot;fillable&quot;:true}" stroke="#2a2a3a" stroke-width="1.5"/><path d="M727.3576,211l6.00864,10.81203l5.65166,11.00284l5.28863,11.18187l4.91994,11.34892l4.54598,11.50382l4.16715,11.6464l3.78386,11.77651l3.39652,11.89401l-31.87555,8.54103l-3.09999,-10.85564l-3.45352,-10.7484l-3.80335,-10.62965l-4.14911,-10.49952l-4.49042,-10.35814l-4.82692,-10.20567l-5.15826,-10.04228l-5.48407,-9.86813z" data-paper-data="{&quot;fillable&quot;:true}" stroke="#2a2a3a" stroke-width="1.5"/><path d="M765.11996,302.1664l3.00554,11.99877l2.61134,12.09069l2.21434,12.16965l1.81498,12.23559l1.41367,12.28842l1.01085,12.3281l0.60694,12.35457l0.20239,12.36781l-33,0l-0.18472,-11.28808l-0.55395,-11.276l-0.9226,-11.25183l-1.29025,-11.21562l-1.65653,-11.1674l-2.02103,-11.10722l-2.38336,-11.03515l-2.74315,-10.95126z" data-paper-data="{&quot;fillable&quot;:true}" stroke="#2a2a3a" stroke-width="1.5"/><path d="M745,400l-0.47281,18.0559l-1.41714,18.00641l-2.35758,17.90757l-3.29156,17.75964l-4.21651,17.56304l-5.12991,17.31829l-6.02925,17.02608l-6.91206,16.6872l-7.77593,16.30258l-8.61849,15.87328l-60.62178,-35l6.86981,-12.65261l6.19821,-12.99481l5.50962,-13.30139l4.80592,-13.57151l4.08906,-13.80444l3.36099,-13.99952l2.6237,-14.15624l1.87923,-14.27415l1.1296,-14.35294l0.37688,-14.39239z" data-paper-data="{&quot;fillable&quot;:true}" stroke="#2a2a3a" stroke-width="1.5"/><path d="M698.77876,572.5l-9.43742,15.40047l-10.23048,14.88544l-10.99551,14.32962l-11.73039,13.73452l-12.43313,13.10178l-13.10178,12.43313l-13.73452,11.73039l-14.32962,10.99551l-14.88544,10.23048l-15.40047,9.43742l-35,-60.62178l12.27573,-7.52258l11.86521,-8.15473l11.42216,-8.76453l10.94781,-9.35031l10.44345,-9.91046l9.91046,-10.44345l9.35031,-10.94781l8.76453,-11.42216l8.15473,-11.86521l7.52258,-12.27573z" data-paper-data="{&quot;fillable&quot;:true}" stroke="#2a2a3a" stroke-width="1.5"/><path d="M572.5,698.77876l-15.87328,8.61849l-16.30258,7.77593l-16.6872,6.91206l-17.02608,6.02925l-17.31829,5.12991l-17.56304,4.21651l-17.75964,3.29156l-17.90757,2.35758l-18.00641,1.41714l-18.0559,0.47281v-70l14.39239,-0.37688l14.35294,-1.1296l14.27415,-1.87923l14.15624,-2.6237l13.99952,-3.36099l13.80444,-4.08906l13.57151,-4.80592l13.30139,-5.50962l12.99481,-6.19821l12.65261,-6.86981z" data-paper-data="{&quot;fillable&quot;:true}" stroke="#2a2a3a" stroke-width="1.5"/><path d="M400,745l-18.0559,-0.47281l-18.00641,-1.41714l-17.90757,-2.35758l-17.75964,-3.29156l-17.56304,-4.21651l-17.31829,-5.12991l-17.02608,-6.02925l-16.6872,-6.91206l-16.30258,-7.77593l-15.87328,-8.61849l35,-60.62178l12.65261,6.86981l12.99481,6.19821l13.30139,5.50962l13.57151,4.80592l13.80444,4.08906l13.99952,3.36099l14.15624,2.6237l14.27415,1.87923l14.35294,1.1296l14.39239,0.37688z" data-paper-data="{&quot;fillable&quot;:true}" stroke="#2a2a3a" stroke-width="1.5"/><path d="M227.5,698.77876l-15.40047,-9.43742l-14.88544,-10.23048l-14.32962,-10.99551l-13.73452,-11.73039l-13.10178,-12.43313l-12.43313,-13.10178l-11.73039,-13.73452l-10.99551,-14.32962l-10.23048,-14.88544l-9.43742,-15.40047l60.62178,-35l7.52258,12.27573l8.15473,11.86521l8.76453,11.42216l9.35031,10.94781l9.91046,10.44345l10.44345,9.91046l10.94781,9.35031l11.42216,8.76453l11.86521,8.15473l12.27573,7.52258z" data-paper-data="{&quot;fillable&quot;:true}" stroke="#2a2a3a" stroke-width="1.5"/><path d="M101.22124,572.5l-8.61849,-15.87328l-7.77593,-16.30258l-6.91206,-16.6872l-6.02925,-17.02608l-5.12991,-17.31829l-4.21651,-17.56304l-3.29156,-17.75964l-2.35758,-17.90757l-1.41714,-18.00641l-0.47281,-18.0559h70l0.37688,14.39239l1.1296,14.35294l1.87923,14.27415l2.6237,14.15624l3.36099,13.99952l4.08906,13.80444l4.80592,13.57151l5.50962,13.30139l6.19821,12.99481l6.86981,12.65261z" data-paper-data="{&quot;fillable&quot;:true}" stroke="#2a2a3a" stroke-width="1.5"/><path d="M55,400l0.47281,-18.0559l1.41714,-18.00641l2.35758,-17.90757l3.29156,-17.75964l4.21651,-17.56304l5.12991,-17.31829l6.02925,-17.02608l6.91206,-16.6872l7.77593,-16.30258l8.61849,-15.87328l60.62178,35l-6.86981,12.65261l-6.19821,12.99481l-5.50962,13.30139l-4.80592,13.57151l-4.08906,13.80444l-3.36099,13.99952l-2.6237,14.15624l-1.87923,14.27415l-1.1296,14.35294l-0.37688,14.39239z" data-paper-data="{&quot;fillable&quot;:true}" stroke="#2a2a3a" stroke-width="1.5"/><path d="M101.22124,227.5l9.43742,-15.40047l10.23048,-14.88544l10.99551,-14.32962l11.73039,-13.73452l12.43313,-13.10178l13.10178,-12.43313l13.73452,-11.73039l14.32962,-10.99551l14.88544,-10.23048l15.40047,-9.43742l35,60.62178l-12.27573,7.52258l-11.86521,8.15473l-11.42216,8.76453l-10.94781,9.35031l-10.44345,9.91046l-9.91046,10.44345l-9.35031,10.94781l-8.76453,11.42216l-8.15473,11.86521l-7.52258,12.27573z" data-paper-data="{&quot;fillable&quot;:true}" stroke="#2a2a3a" stroke-width="1.5"/><path d="M227.5,101.22124l15.87328,-8.61849l16.30258,-7.77593l16.6872,-6.91206l17.02608,-6.02925l17.31829,-5.12991l17.56304,-4.21651l17.75964,-3.29156l17.90757,-2.35758l18.00641,-1.41714l18.0559,-0.47281v70l-14.39239,0.37688l-14.35294,1.1296l-14.27415,1.87923l-14.15624,2.6237l-13.99952,3.36099l-13.80444,4.08906l-13.57151,4.80592l-13.30139,5.50962l-12.99481,6.19821l-12.65261,6.86981z" data-paper-data="{&quot;fillable&quot;:true}" stroke="#2a2a3a" stroke-width="1.5"/><path d="M400,55l18.0559,0.47281l18.00641,1.41714l17.90757,2.35758l17.75964,3.29156l17.56304,4.21651l17.31829,5.12991l17.02608,6.02925l16.6872,6.91206l16.30258,7.77593l15.87328,8.61849l-35,60.62178l-12.65261,-6.86981l-12.99481,-6.19821l-13.30139,-5.50962l-13.57151,-4.80592l-13.80444,-4.08906l-13.99952,-3.36099l-14.15624,-2.6237l-14.27415,-1.87923l-14.35294,-1.1296l-14.39239,-0.37688z" data-paper-data="{&quot;fillable&quot;:true}" stroke="#2a2a3a" stroke-width="1.5"/><path d="M572.5,101.22124l15.40047,9.43742l14.88544,10.23048l14.32962,10.99551l13.73452,11.73039l13.10178,12.43313l12.43313,13.10178l11.73039,13.73452l10.99551,14.32962l10.23048,14.88544l9.43742,15.40047l-60.62178,35l-7.52258,-12.27573l-8.15473,-11.86521l-8.76453,-11.42216l-9.35031,-10.94781l-9.91046,-10.44345l-10.44345,-9.91046l-10.94781,-9.35031l-11.42216,-8.76453l-11.86521,-8.15473l-12.27573,-7.52258z" data-paper-data="{&quot;fillable&quot;:true}" stroke="#2a2a3a" stroke-width="1.5"/><path d="M698.77876,227.5l8.61849,15.87328l7.77593,16.30258l6.91206,16.6872l6.02925,17.02608l5.12991,17.31829l4.21651,17.56304l3.29156,17.75964l2.35758,17.90757l1.41714,18.00641l0.47281,18.0559h-70l-0.37688,-14.39239l-1.1296,-14.35294l-1.87923,-14.27415l-2.6237,-14.15624l-3.36099,-13.99952l-4.08906,-13.80444l-4.80592,-13.57151l-5.50962,-13.30139l-6.19821,-12.99481l-6.86981,-12.65261z" data-paper-data="{&quot;fillable&quot;:true}" stroke="#2a2a3a" stroke-width="1.5"/><path d="M670.45923,472.46933c-1.03528,3.8637 6.74747,13.04021 11.96261,15.62869c5.10005,2.53135 12.5077,0.4248 18.82218,0.07406c6.43908,-0.35766 18.82218,0.07406 19.44335,-2.24416c0.62117,-2.31822 -10.31878,-8.13589 -15.71635,-11.66517c-5.29313,-3.46099 -10.65507,-8.98914 -16.33752,-9.34695c-5.81068,-0.36588 -17.139,3.68983 -18.17427,7.55353z" data-paper-data="{&quot;fillable&quot;:true}" stroke="#2a2a3a" stroke-width="1.5"/><path d="M597.9899,597.9899c-2.82843,2.82843 -0.67662,14.66689 2.54558,19.51615c3.15109,4.74224 10.61958,6.62174 16.26346,9.47523c5.75524,2.90979 16.26346,9.47523 17.96051,7.77817c1.69706,-1.69706 -4.86838,-12.20528 -7.77817,-17.96051c-2.85349,-5.64388 -4.73299,-13.11236 -9.47523,-16.26346c-4.84926,-3.2222 -16.68772,-5.37401 -19.51615,-2.54558z" data-paper-data="{&quot;fillable&quot;:true}" stroke="#2a2a3a" stroke-width="1.5"/><path d="M472.46933,670.45923c-3.8637,1.03528 -7.91941,12.36359 -7.55353,18.17427c0.35781,5.68245 5.88596,11.04438 9.34695,16.33752c3.52928,5.39757 9.34695,16.33752 11.66517,15.71635c2.31822,-0.62117 1.8865,-13.00427 2.24416,-19.44335c0.35074,-6.31449 2.45729,-13.72214 -0.07406,-18.82218c-2.58848,-5.21514 -11.76498,-12.99789 -15.62869,-11.96261z" data-paper-data="{&quot;fillable&quot;:true}" stroke="#2a2a3a" stroke-width="1.5"/><path d="M327.53067,670.45923c-3.8637,-1.03528 -13.04021,6.74747 -15.62869,11.96261c-2.53135,5.10005 -0.4248,12.5077 -0.07406,18.82218c0.35766,6.43908 -0.07406,18.82218 2.24416,19.44335c2.31822,0.62117 8.13589,-10.31878 11.66517,-15.71635c3.46099,-5.29313 8.98914,-10.65507 9.34695,-16.33752c0.36588,-5.81068 -3.68983,-17.139 -7.55353,-18.17427z" data-paper-data="{&quot;fillable&quot;:true}" stroke="#2a2a3a" stroke-width="1.5"/><path d="M202.0101,597.9899c-2.82843,-2.82843 -14.66689,-0.67662 -19.51615,2.54558c-4.74224,3.15109 -6.62174,10.61958 -9.47523,16.26346c-2.90979,5.75524 -9.47523,16.26346 -7.77817,17.96051c1.69706,1.69706 12.20528,-4.86838 17.96051,-7.77817c5.64388,-2.85349 13.11236,-4.73299 16.26346,-9.47523c3.2222,-4.84926 5.37401,-16.68772 2.54558,-19.51615z" data-paper-data="{&quot;fillable&quot;:true}" stroke="#2a2a3a" stroke-width="1.5"/><path d="M129.54077,472.46933c-1.03528,-3.8637 -12.36359,-7.91941 -18.17427,-7.55353c-5.68245,0.35781 -11.04438,5.88596 -16.33752,9.34695c-5.39757,3.52928 -16.33752,9.34695 -15.71635,11.66517c0.62117,2.31822 13.00427,1.8865 19.44335,2.24416c6.31449,0.35074 13.72214,2.45729 18.82218,-0.07406c5.21514,-2.58848 12.99789,-11.76498 11.96261,-15.62869z" data-paper-data="{&quot;fillable&quot;:true}" stroke="#2a2a3a" stroke-width="1.5"/><path d="M129.54077,327.53067c1.03528,-3.8637 -6.74747,-13.04021 -11.96261,-15.62869c-5.10005,-2.53135 -12.5077,-0.4248 -18.82218,-0.07406c-6.43908,0.35766 -18.82218,-0.07406 -19.44335,2.24416c-0.62117,2.31822 10.31878,8.13589 15.71635,11.66517c5.29313,3.46099 10.65507,8.98914 16.33752,9.34695c5.81068,0.36588 17.139,-3.68983 18.17427,-7.55353z" data-paper-data="{&quot;fillable&quot;:true}" stroke="#2a2a3a" stroke-width="1.5"/><path d="M202.0101,202.0101c2.82843,-2.82843 0.67662,-14.66689 -2.54558,-19.51615c-3.15109,-4.74224 -10.61958,-6.62174 -16.26346,-9.47523c-5.75524,-2.90979 -16.26346,-9.47523 -17.96051,-7.77817c-1.69706,1.69706 4.86838,12.20528 7.77817,17.96051c2.85349,5.64388 4.73299,13.11236 9.47523,16.26346c4.84926,3.2222 16.68772,5.37401 19.51615,2.54558z" data-paper-data="{&quot;fillable&quot;:true}" stroke="#2a2a3a" stroke-width="1.5"/><path d="M327.53067,129.54077c3.8637,-1.03528 7.91941,-12.36359 7.55353,-18.17427c-0.35781,-5.68245 -5.88596,-11.04438 -9.34695,-16.33752c-3.52928,-5.39757 -9.34695,-16.33752 -11.66517,-15.71635c-2.31822,0.62117 -1.8865,13.00427 -2.24416,19.44335c-0.35074,6.31449 -2.45729,13.72214 0.07406,18.82218c2.58848,5.21514 11.76498,12.99789 15.62869,11.96261z" data-paper-data="{&quot;fillable&quot;:true}" stroke="#2a2a3a" stroke-width="1.5"/><path d="M472.46933,129.54077c3.8637,1.03528 13.04021,-6.74747 15.62869,-11.96261c2.53135,-5.10005 0.4248,-12.5077 0.07406,-18.82218c-0.35766,-6.43908 0.07406,-18.82218 -2.24416,-19.44335c-2.31822,-0.62117 -8.13589,10.31878 -11.66517,15.71635c-3.46099,5.29313 -8.98914,10.65507 -9.34695,16.33752c-0.36588,5.81068 3.68983,17.139 7.55353,18.17427z" data-paper-data="{&quot;fillable&quot;:true}" stroke="#2a2a3a" stroke-width="1.5"/><path d="M597.9899,202.0101c2.82843,2.82843 14.66689,0.67662 19.51615,-2.54558c4.74224,-3.15109 6.62174,-10.61958 9.47523,-16.26346c2.90979,-5.75524 9.47523,-16.26346 7.77817,-17.96051c-1.69706,-1.69706 -12.20528,4.86838 -17.96051,7.77817c-5.64388,2.85349 -13.11236,4.73299 -16.26346,9.47523c-3.2222,4.84926 -5.37401,16.68772 -2.54558,19.51615z" data-paper-data="{&quot;fillable&quot;:true}" stroke="#2a2a3a" stroke-width="1.5"/><path d="M670.45923,327.53067c1.03528,3.8637 12.36359,7.91941 18.17427,7.55353c5.68245,-0.35781 11.04438,-5.88596 16.33752,-9.34695c5.39757,-3.52928 16.33752,-9.34695 15.71635,-11.66517c-0.62117,-2.31822 -13.00427,-1.8865 -19.44335,-2.24416c-6.31449,-0.35074 -13.72214,-2.45729 -18.82218,0.07406c-5.21514,2.58848 -12.99789,11.76498 -11.96261,15.62869z" data-paper-data="{&quot;fillable&quot;:true}" stroke="#2a2a3a" stroke-width="1.5"/><path d="M701,400c0,-4.97056 4.02944,-9 9,-9c4.97056,0 9,4.02944 9,9c0,4.97056 -4.02944,9 -9,9c-4.97056,0 -9,-4.02944 -9,-9z" data-paper-data="{&quot;fillable&quot;:true}" stroke="#2a2a3a" stroke-width="1.5"/><path d="M659.46788,555c0,-4.97056 4.02944,-9 9,-9c4.97056,0 9,4.02944 9,9c0,4.97056 -4.02944,9 -9,9c-4.97056,0 -9,-4.02944 -9,-9z" data-paper-data="{&quot;fillable&quot;:true}" stroke="#2a2a3a" stroke-width="1.5"/><path d="M546,668.46788c0,-4.97056 4.02944,-9 9,-9c4.97056,0 9,4.02944 9,9c0,4.97056 -4.02944,9 -9,9c-4.97056,0 -9,-4.02944 -9,-9z" data-paper-data="{&quot;fillable&quot;:true}" stroke="#2a2a3a" stroke-width="1.5"/><path d="M391,710c0,-4.97056 4.02944,-9 9,-9c4.97056,0 9,4.02944 9,9c0,4.97056 -4.02944,9 -9,9c-4.97056,0 -9,-4.02944 -9,-9z" data-paper-data="{&quot;fillable&quot;:true}" stroke="#2a2a3a" stroke-width="1.5"/><path d="M236,668.46788c0,-4.97056 4.02944,-9 9,-9c4.97056,0 9,4.02944 9,9c0,4.97056 -4.02944,9 -9,9c-4.97056,0 -9,-4.02944 -9,-9z" data-paper-data="{&quot;fillable&quot;:true}" stroke="#2a2a3a" stroke-width="1.5"/><path d="M122.53212,555c0,-4.97056 4.02944,-9 9,-9c4.97056,0 9,4.02944 9,9c0,4.97056 -4.02944,9 -9,9c-4.97056,0 -9,-4.02944 -9,-9z" data-paper-data="{&quot;fillable&quot;:true}" stroke="#2a2a3a" stroke-width="1.5"/><path d="M81,400c0,-4.97056 4.02944,-9 9,-9c4.97056,0 9,4.02944 9,9c0,4.97056 -4.02944,9 -9,9c-4.97056,0 -9,-4.02944 -9,-9z" data-paper-data="{&quot;fillable&quot;:true}" stroke="#2a2a3a" stroke-width="1.5"/><path d="M122.53212,245c0,-4.97056 4.02944,-9 9,-9c4.97056,0 9,4.02944 9,9c0,4.97056 -4.02944,9 -9,9c-4.97056,0 -9,-4.02944 -9,-9z" data-paper-data="{&quot;fillable&quot;:true}" stroke="#2a2a3a" stroke-width="1.5"/><path d="M236,131.53212c0,-4.97056 4.02944,-9 9,-9c4.97056,0 9,4.02944 9,9c0,4.97056 -4.02944,9 -9,9c-4.97056,0 -9,-4.02944 -9,-9z" data-paper-data="{&quot;fillable&quot;:true}" stroke="#2a2a3a" stroke-width="1.5"/><path d="M391,90c0,-4.97056 4.02944,-9 9,-9c4.97056,0 9,4.02944 9,9c0,4.97056 -4.02944,9 -9,9c-4.97056,0 -9,-4.02944 -9,-9z" data-paper-data="{&quot;fillable&quot;:true}" stroke="#2a2a3a" stroke-width="1.5"/><path d="M546,131.53212c0,-4.97056 4.02944,-9 9,-9c4.97056,0 9,4.02944 9,9c0,4.97056 -4.02944,9 -9,9c-4.97056,0 -9,-4.02944 -9,-9z" data-paper-data="{&quot;fillable&quot;:true}" stroke="#2a2a3a" stroke-width="1.5"/><path d="M659.46788,245c0,-4.97056 4.02944,-9 9,-9c4.97056,0 9,4.02944 9,9c0,4.97056 -4.02944,9 -9,9c-4.97056,0 -9,-4.02944 -9,-9z" data-paper-data="{&quot;fillable&quot;:true}" stroke="#2a2a3a" stroke-width="1.5"/><path d="M675,400l-0.37688,14.39239l-1.1296,14.35294l-1.87923,14.27415l-2.6237,14.15624l-3.36099,13.99952l-4.08906,13.80444l-4.80592,13.57151l-5.50962,13.30139l-6.19821,12.99481l-6.86981,12.65261l-69.28203,-40l4.87132,-8.97185l4.39509,-9.2145l3.90682,-9.4319l3.40784,-9.62344l2.89952,-9.7886l2.38325,-9.92693l1.86044,-10.03806l1.33254,-10.12167l0.80099,-10.17754l0.26724,-10.20551z" data-paper-data="{&quot;fillable&quot;:true}" stroke="#2a2a3a" stroke-width="1.5"/><path d="M638.15699,537.5l-7.52258,12.27573l-8.15473,11.86521l-8.76453,11.42216l-9.35031,10.94781l-9.91046,10.44345l-10.44345,9.91046l-10.94781,9.35031l-11.42216,8.76453l-11.86521,8.15473l-12.27573,7.52258l-40,-69.28203l8.70461,-5.33419l8.41351,-5.78245l8.09935,-6.21485l7.76299,-6.63022l7.40535,-7.02742l7.02742,-7.40535l6.63022,-7.76299l6.21485,-8.09935l5.78245,-8.41351l5.33419,-8.70461z" data-paper-data="{&quot;fillable&quot;:true}" stroke="#2a2a3a" stroke-width="1.5"/><path d="M537.5,638.15699l-12.65261,6.86981l-12.99481,6.19821l-13.30139,5.50962l-13.57151,4.80592l-13.80444,4.08906l-13.99952,3.36099l-14.15624,2.6237l-14.27415,1.87923l-14.35294,1.1296l-14.39239,0.37688v-80l10.20551,-0.26724l10.17754,-0.80099l10.12167,-1.33254l10.03806,-1.86044l9.92693,-2.38325l9.7886,-2.89952l9.62344,-3.40784l9.4319,-3.90682l9.2145,-4.39509l8.97185,-4.87132z" data-paper-data="{&quot;fillable&quot;:true}" stroke="#2a2a3a" stroke-width="1.5"/><path d="M400,675l-14.39239,-0.37688l-14.35294,-1.1296l-14.27415,-1.87923l-14.15624,-2.6237l-13.99952,-3.36099l-13.80444,-4.08906l-13.57151,-4.80592l-13.30139,-5.50962l-12.99481,-6.19821l-12.65261,-6.86981l40,-69.28203l8.97185,4.87132l9.2145,4.39509l9.4319,3.90682l9.62344,3.40784l9.7886,2.89952l9.92693,2.38325l10.03806,1.86044l10.12167,1.33254l10.17754,0.80099l10.20551,0.26724z" data-paper-data="{&quot;fillable&quot;:true}" stroke="#2a2a3a" stroke-width="1.5"/><path d="M262.5,638.15699l-12.27573,-7.52258l-11.86521,-8.15473l-11.42216,-8.76453l-10.94781,-9.35031l-10.44345,-9.91046l-9.91046,-10.44345l-9.35031,-10.94781l-8.76453,-11.42216l-8.15473,-11.86521l-7.52258,-12.27573l69.28203,-40l5.33419,8.70461l5.78245,8.41351l6.21485,8.09935l6.63022,7.76299l7.02742,7.40535l7.40535,7.02742l7.76299,6.63022l8.09935,6.21485l8.41351,5.78245l8.70461,5.33419z" data-paper-data="{&quot;fillable&quot;:true}" stroke="#2a2a3a" stroke-width="1.5"/><path d="M161.84301,537.5l-6.86981,-12.65261l-6.19821,-12.99481l-5.50962,-13.30139l-4.80592,-13.57151l-4.08906,-13.80444l-3.36099,-13.99952l-2.6237,-14.15624l-1.87923,-14.27415l-1.1296,-14.35294l-0.37688,-14.39239l80,0l0.26724,10.20551l0.80099,10.17754l1.33254,10.12167l1.86044,10.03806l2.38325,9.92693l2.89952,9.7886l3.40784,9.62344l3.90682,9.4319l4.39509,9.2145l4.87132,8.97185z" data-paper-data="{&quot;fillable&quot;:true}" stroke="#2a2a3a" stroke-width="1.5"/><path d="M125,400l0.37688,-14.39239l1.1296,-14.35294l1.87923,-14.27415l2.6237,-14.15624l3.36099,-13.99952l4.08906,-13.80444l4.80592,-13.57151l5.50962,-13.30139l6.19821,-12.99481l6.86981,-12.65261l69.28203,40l-4.87132,8.97185l-4.39509,9.2145l-3.90682,9.4319l-3.40784,9.62344l-2.89952,9.7886l-2.38325,9.92693l-1.86044,10.03806l-1.33254,10.12167l-0.80099,10.17754l-0.26724,10.20551z" data-paper-data="{&quot;fillable&quot;:true}" stroke="#2a2a3a" stroke-width="1.5"/><path d="M161.84301,262.5l7.52258,-12.27573l8.15473,-11.86521l8.76453,-11.42216l9.35031,-10.94781l9.91046,-10.44345l10.44345,-9.91046l10.94781,-9.35031l11.42216,-8.76453l11.86521,-8.15473l12.27573,-7.52258l40,69.28203l-8.70461,5.33419l-8.41351,5.78245l-8.09935,6.21485l-7.76299,6.63022l-7.40535,7.02742l-7.02742,7.40535l-6.63022,7.76299l-6.21485,8.09935l-5.78245,8.41351l-5.33419,8.70461z" data-paper-data="{&quot;fillable&quot;:true}" stroke="#2a2a3a" stroke-width="1.5"/><path d="M262.5,161.84301l12.65261,-6.86981l12.99481,-6.19821l13.30139,-5.50962l13.57151,-4.80592l13.80444,-4.08906l13.99952,-3.36099l14.15624,-2.6237l14.27415,-1.87923l14.35294,-1.1296l14.39239,-0.37688v80l-10.20551,0.26724l-10.17754,0.80099l-10.12167,1.33254l-10.03806,1.86044l-9.92693,2.38325l-9.7886,2.89952l-9.62344,3.40784l-9.4319,3.90682l-9.2145,4.39509l-8.97185,4.87132z" data-paper-data="{&quot;fillable&quot;:true}" stroke="#2a2a3a" stroke-width="1.5"/><path d="M400,125l14.39239,0.37688l14.35294,1.1296l14.27415,1.87923l14.15624,2.6237l13.99952,3.36099l13.80444,4.08906l13.57151,4.80592l13.30139,5.50962l12.99481,6.19821l12.65261,6.86981l-40,69.28203l-8.97185,-4.87132l-9.2145,-4.39509l-9.4319,-3.90682l-9.62344,-3.40784l-9.7886,-2.89952l-9.92693,-2.38325l-10.03806,-1.86044l-10.12167,-1.33254l-10.17754,-0.80099l-10.20551,-0.26724z" data-paper-data="{&quot;fillable&quot;:true}" stroke="#2a2a3a" stroke-width="1.5"/><path d="M537.5,161.84301l12.27573,7.52258l11.86521,8.15473l11.42216,8.76453l10.94781,9.35031l10.44345,9.91046l9.91046,10.44345l9.35031,10.94781l8.76453,11.42216l8.15473,11.86521l7.52258,12.27573l-69.28203,40l-5.33419,-8.70461l-5.78245,-8.41351l-6.21485,-8.09935l-6.63022,-7.76299l-7.02742,-7.40535l-7.40535,-7.02742l-7.76299,-6.63022l-8.09935,-6.21485l-8.41351,-5.78245l-8.70461,-5.33419z" data-paper-data="{&quot;fillable&quot;:true}" stroke="#2a2a3a" stroke-width="1.5"/><path d="M638.15699,262.5l6.86981,12.65261l6.19821,12.99481l5.50962,13.30139l4.80592,13.57151l4.08906,13.80444l3.36099,13.99952l2.6237,14.15624l1.87923,14.27415l1.1296,14.35294l0.37688,14.39239h-80l-0.26724,-10.20551l-0.80099,-10.17754l-1.33254,-10.12167l-1.86044,-10.03806l-2.38325,-9.92693l-2.89952,-9.7886l-3.40784,-9.62344l-3.90682,-9.4319l-4.39509,-9.2145l-4.87132,-8.97185z" data-paper-data="{&quot;fillable&quot;:true}" stroke="#2a2a3a" stroke-width="1.5"/><path d="M600,400l34,20l34,-20l-34,-20z" data-paper-data="{&quot;fillable&quot;:true}" stroke="#2a2a3a" stroke-width="1.5"/><path d="M573.20508,500l19.44486,34.32051l39.44486,-0.32051l-19.44486,-34.32051z" data-paper-data="{&quot;fillable&quot;:true}" stroke="#2a2a3a" stroke-width="1.5"/><path d="M500,573.20508l-0.32051,39.44486l34.32051,19.44486l0.32051,-39.44486z" data-paper-data="{&quot;fillable&quot;:true}" stroke="#2a2a3a" stroke-width="1.5"/><path d="M400,600l-20,34l20,34l20,-34z" data-paper-data="{&quot;fillable&quot;:true}" stroke="#2a2a3a" stroke-width="1.5"/><path d="M300,573.20508l-34.32051,19.44486l0.32051,39.44486l34.32051,-19.44486z" data-paper-data="{&quot;fillable&quot;:true}" stroke="#2a2a3a" stroke-width="1.5"/><path d="M226.79492,500l-39.44486,-0.32051l-19.44486,34.32051l39.44486,0.32051z" data-paper-data="{&quot;fillable&quot;:true}" stroke="#2a2a3a" stroke-width="1.5"/><path d="M200,400l-34,-20l-34,20l34,20z" data-paper-data="{&quot;fillable&quot;:true}" stroke="#2a2a3a" stroke-width="1.5"/><path d="M226.79492,300l-19.44486,-34.32051l-39.44486,0.32051l19.44486,34.32051z" data-paper-data="{&quot;fillable&quot;:true}" stroke="#2a2a3a" stroke-width="1.5"/><path d="M300,226.79492l0.32051,-39.44486l-34.32051,-19.44486l-0.32051,39.44486z" data-paper-data="{&quot;fillable&quot;:true}" stroke="#2a2a3a" stroke-width="1.5"/><path d="M400,200l20,-34l-20,-34l-20,34z" data-paper-data="{&quot;fillable&quot;:true}" stroke="#2a2a3a" stroke-width="1.5"/><path d="M500,226.79492l34.32051,-19.44486l-0.32051,-39.44486l-34.32051,19.44486z" data-paper-data="{&quot;fillable&quot;:true}" stroke="#2a2a3a" stroke-width="1.5"/><path d="M573.20508,300l39.44486,0.32051l19.44486,-34.32051l-39.44486,-0.32051z" data-paper-data="{&quot;fillable&quot;:true}" stroke="#2a2a3a" stroke-width="1.5"/><path d="M607.67405,455.64609l15.24676,16.50867l21.45842,-6.67355l-15.24676,-16.50867z" data-paper-data="{&quot;fillable&quot;:true}" stroke="#2a2a3a" stroke-width="1.5"/><path d="M552.02796,552.02796l4.94975,21.92031l21.92031,4.94975l-4.94975,-21.92031z" data-paper-data="{&quot;fillable&quot;:true}" stroke="#2a2a3a" stroke-width="1.5"/><path d="M455.64609,607.67405l-6.67355,21.45842l16.50867,15.24676l6.67355,-21.45842z" data-paper-data="{&quot;fillable&quot;:true}" stroke="#2a2a3a" stroke-width="1.5"/><path d="M344.35391,607.67405l-16.50867,15.24676l6.67355,21.45842l16.50867,-15.24676z" data-paper-data="{&quot;fillable&quot;:true}" stroke="#2a2a3a" stroke-width="1.5"/><path d="M247.97204,552.02796l-21.92031,4.94975l-4.94975,21.92031l21.92031,-4.94975z" data-paper-data="{&quot;fillable&quot;:true}" stroke="#2a2a3a" stroke-width="1.5"/><path d="M192.32595,455.64609l-21.45842,-6.67355l-15.24676,16.50867l21.45842,6.67355z" data-paper-data="{&quot;fillable&quot;:true}" stroke="#2a2a3a" stroke-width="1.5"/><path d="M192.32595,344.35391l-15.24676,-16.50867l-21.45842,6.67355l15.24676,16.50867z" data-paper-data="{&quot;fillable&quot;:true}" stroke="#2a2a3a" stroke-width="1.5"/><path d="M247.97204,247.97204l-4.94975,-21.92031l-21.92031,-4.94975l4.94975,21.92031z" data-paper-data="{&quot;fillable&quot;:true}" stroke="#2a2a3a" stroke-width="1.5"/><path d="M344.35391,192.32595l6.67355,-21.45842l-16.50867,-15.24676l-6.67355,21.45842z" data-paper-data="{&quot;fillable&quot;:true}" stroke="#2a2a3a" stroke-width="1.5"/><path d="M455.64609,192.32595l16.50867,-15.24676l-6.67355,-21.45842l-16.50867,15.24676z" data-paper-data="{&quot;fillable&quot;:true}" stroke="#2a2a3a" stroke-width="1.5"/><path d="M552.02796,247.97204l21.92031,-4.94975l4.94975,-21.92031l-21.92031,4.94975z" data-paper-data="{&quot;fillable&quot;:true}" stroke="#2a2a3a" stroke-width="1.5"/><path d="M607.67405,344.35391l21.45842,6.67355l15.24676,-16.50867l-21.45842,-6.67355z" data-paper-data="{&quot;fillable&quot;:true}" stroke="#2a2a3a" stroke-width="1.5"/><path d="M595,400l-0.26724,10.20551l-0.80099,10.17754l-1.33254,10.12167l-1.86044,10.03806l-2.38325,9.92693l-2.89952,9.7886l-3.40784,9.62344l-3.90682,9.4319l-4.39509,9.2145l-4.87132,8.97185l-60.62178,-35l3.12264,-5.75119l2.81737,-5.90673l2.50437,-6.04609l2.18451,-6.16887l1.85866,-6.27474l1.52772,-6.36342l1.19259,-6.43465l0.85419,-6.48825l0.51345,-6.52406l0.17131,-6.54199z" data-paper-data="{&quot;fillable&quot;:true}" stroke="#2a2a3a" stroke-width="1.5"/><path d="M568.87495,497.5l-5.33419,8.70461l-5.78245,8.41351l-6.21485,8.09935l-6.63022,7.76299l-7.02742,7.40535l-7.40535,7.02742l-7.76299,6.63022l-8.09935,6.21485l-8.41351,5.78245l-8.70461,5.33419l-35,-60.62178l5.57988,-3.41935l5.39328,-3.7067l5.19189,-3.98388l4.97628,-4.25014l4.74702,-4.50476l4.50476,-4.74702l4.25014,-4.97628l3.98388,-5.19189l3.7067,-5.39328l3.41935,-5.57988z" data-paper-data="{&quot;fillable&quot;:true}" stroke="#2a2a3a" stroke-width="1.5"/><path d="M497.5,568.87495l-8.97185,4.87132l-9.2145,4.39509l-9.4319,3.90682l-9.62344,3.40784l-9.7886,2.89952l-9.92693,2.38325l-10.03806,1.86044l-10.12167,1.33254l-10.17754,0.80099l-10.20551,0.26724v-70l6.54199,-0.17131l6.52406,-0.51345l6.48825,-0.85419l6.43465,-1.19259l6.36342,-1.52772l6.27474,-1.85866l6.16887,-2.18451l6.04609,-2.50437l5.90673,-2.81737l5.75119,-3.12264z" data-paper-data="{&quot;fillable&quot;:true}" stroke="#2a2a3a" stroke-width="1.5"/><path d="M400,595l-10.20551,-0.26724l-10.17754,-0.80099l-10.12167,-1.33254l-10.03806,-1.86044l-9.92693,-2.38325l-9.7886,-2.89952l-9.62344,-3.40784l-9.4319,-3.90682l-9.2145,-4.39509l-8.97185,-4.87132l35,-60.62178l5.75119,3.12264l5.90673,2.81737l6.04609,2.50437l6.16887,2.18451l6.27474,1.85866l6.36342,1.52772l6.43465,1.19259l6.48825,0.85419l6.52406,0.51345l6.54199,0.17131z" data-paper-data="{&quot;fillable&quot;:true}" stroke="#2a2a3a" stroke-width="1.5"/><path d="M302.5,568.87495l-8.70461,-5.33419l-8.41351,-5.78245l-8.09935,-6.21485l-7.76299,-6.63022l-7.40535,-7.02742l-7.02742,-7.40535l-6.63022,-7.76299l-6.21485,-8.09935l-5.78245,-8.41351l-5.33419,-8.70461l60.62178,-35l3.41935,5.57988l3.7067,5.39328l3.98388,5.19189l4.25014,4.97628l4.50476,4.74702l4.74702,4.50476l4.97628,4.25014l5.19189,3.98388l5.39328,3.7067l5.57988,3.41935z" data-paper-data="{&quot;fillable&quot;:true}" stroke="#2a2a3a" stroke-width="1.5"/><path d="M231.12505,497.5l-4.87132,-8.97185l-4.39509,-9.2145l-3.90682,-9.4319l-3.40784,-9.62344l-2.89952,-9.7886l-2.38325,-9.92693l-1.86044,-10.03806l-1.33254,-10.12167l-0.80099,-10.17754l-0.26724,-10.20551h70l0.17131,6.54199l0.51345,6.52406l0.85419,6.48825l1.19259,6.43465l1.52772,6.36342l1.85866,6.27474l2.18451,6.16887l2.50437,6.04609l2.81737,5.90673l3.12264,5.75119z" data-paper-data="{&quot;fillable&quot;:true}" stroke="#2a2a3a" stroke-width="1.5"/><path d="M205,400l0.26724,-10.20551l0.80099,-10.17754l1.33254,-10.12167l1.86044,-10.03806l2.38325,-9.92693l2.89952,-9.7886l3.40784,-9.62344l3.90682,-9.4319l4.39509,-9.2145l4.87132,-8.97185l60.62178,35l-3.12264,5.75119l-2.81737,5.90673l-2.50437,6.04609l-2.18451,6.16887l-1.85866,6.27474l-1.52772,6.36342l-1.19259,6.43465l-0.85419,6.48825l-0.51345,6.52406l-0.17131,6.54199z" data-paper-data="{&quot;fillable&quot;:true}" stroke="#2a2a3a" stroke-width="1.5"/><path d="M231.12505,302.5l5.33419,-8.70461l5.78245,-8.41351l6.21485,-8.09935l6.63022,-7.76299l7.02742,-7.40535l7.40535,-7.02742l7.76299,-6.63022l8.09935,-6.21485l8.41351,-5.78245l8.70461,-5.33419l35,60.62178l-5.57988,3.41935l-5.39328,3.7067l-5.19189,3.98388l-4.97628,4.25014l-4.74702,4.50476l-4.50476,4.74702l-4.25014,4.97628l-3.98388,5.19189l-3.7067,5.39328l-3.41935,5.57988z" data-paper-data="{&quot;fillable&quot;:true}" stroke="#2a2a3a" stroke-width="1.5"/><path d="M302.5,231.12505l8.97185,-4.87132l9.2145,-4.39509l9.4319,-3.90682l9.62344,-3.40784l9.7886,-2.89952l9.92693,-2.38325l10.03806,-1.86044l10.12167,-1.33254l10.17754,-0.80099l10.20551,-0.26724l0,70l-6.54199,0.17131l-6.52406,0.51345l-6.48825,0.85419l-6.43465,1.19259l-6.36342,1.52772l-6.27474,1.85866l-6.16887,2.18451l-6.04609,2.50437l-5.90673,2.81737l-5.75119,3.12264z" data-paper-data="{&quot;fillable&quot;:true}" stroke="#2a2a3a" stroke-width="1.5"/><path d="M400,205l10.20551,0.26724l10.17754,0.80099l10.12167,1.33254l10.03806,1.86044l9.92693,2.38325l9.7886,2.89952l9.62344,3.40784l9.4319,3.90682l9.2145,4.39509l8.97185,4.87132l-35,60.62178l-5.75119,-3.12264l-5.90673,-2.81737l-6.04609,-2.50437l-6.16887,-2.18451l-6.27474,-1.85866l-6.36342,-1.52772l-6.43465,-1.19259l-6.48825,-0.85419l-6.52406,-0.51345l-6.54199,-0.17131z" data-paper-data="{&quot;fillable&quot;:true}" stroke="#2a2a3a" stroke-width="1.5"/><path d="M497.5,231.12505l8.70461,5.33419l8.41351,5.78245l8.09935,6.21485l7.76299,6.63022l7.40535,7.02742l7.02742,7.40535l6.63022,7.76299l6.21485,8.09935l5.78245,8.41351l5.33419,8.70461l-60.62178,35l-3.41935,-5.57988l-3.7067,-5.39328l-3.98388,-5.19189l-4.25014,-4.97628l-4.50476,-4.74702l-4.74702,-4.50476l-4.97628,-4.25014l-5.19189,-3.98388l-5.39328,-3.7067l-5.57988,-3.41935z" data-paper-data="{&quot;fillable&quot;:true}" stroke="#2a2a3a" stroke-width="1.5"/><path d="M568.87495,302.5l4.87132,8.97185l4.39509,9.2145l3.90682,9.4319l3.40784,9.62344l2.89952,9.7886l2.38325,9.92693l1.86044,10.03806l1.33254,10.12167l0.80099,10.17754l0.26724,10.20551h-70l-0.17131,-6.54199l-0.51345,-6.52406l-0.85419,-6.48825l-1.19259,-6.43465l-1.52772,-6.36342l-1.85866,-6.27474l-2.18451,-6.16887l-2.50437,-6.04609l-2.81737,-5.90673l-3.12264,-5.75119z" data-paper-data="{&quot;fillable&quot;:true}" stroke="#2a2a3a" stroke-width="1.5"/><path d="M525.57036,433.64648c-1.46664,5.47358 11.96798,20.38577 20.81074,23.17592c9.52594,3.00571 33.74632,-2.69083 35.21296,-8.16441c1.46664,-5.47358 -16.66055,-22.51712 -26.41311,-24.67707c-9.05313,-2.00504 -28.14395,4.19198 -29.61059,9.66556z" data-paper-data="{&quot;fillable&quot;:true}" stroke="#2a2a3a" stroke-width="1.5"/><path d="M491.92388,491.92388c-4.00694,4.00694 0.17169,23.63858 6.43467,30.4763c6.74685,7.36599 30.57058,14.54283 34.57752,10.53589c4.00694,-4.00694 -3.1699,-27.83067 -10.53589,-34.57752c-6.83772,-6.26298 -26.46936,-10.44161 -30.4763,-6.43467z" data-paper-data="{&quot;fillable&quot;:true}" stroke="#2a2a3a" stroke-width="1.5"/><path d="M433.64648,525.57036c-5.47358,1.46664 -11.6706,20.55746 -9.66556,29.61059c2.15995,9.75256 19.20349,27.87975 24.67707,26.41311c5.47358,-1.46664 11.17012,-25.68702 8.16441,-35.21296c-2.79015,-8.84276 -17.70234,-22.27738 -23.17592,-20.81074z" data-paper-data="{&quot;fillable&quot;:true}" stroke="#2a2a3a" stroke-width="1.5"/><path d="M366.35352,525.57036c-5.47358,-1.46664 -20.38577,11.96798 -23.17592,20.81074c-3.00571,9.52594 2.69083,33.74632 8.16441,35.21296c5.47358,1.46664 22.51712,-16.66055 24.67707,-26.41311c2.00504,-9.05313 -4.19198,-28.14395 -9.66556,-29.61059z" data-paper-data="{&quot;fillable&quot;:true}" stroke="#2a2a3a" stroke-width="1.5"/><path d="M308.07612,491.92388c-4.00694,-4.00694 -23.63858,0.17169 -30.4763,6.43467c-7.36599,6.74685 -14.54283,30.57058 -10.53589,34.57752c4.00694,4.00694 27.83067,-3.1699 34.57752,-10.53589c6.26298,-6.83772 10.44161,-26.46936 6.43467,-30.4763z" data-paper-data="{&quot;fillable&quot;:true}" stroke="#2a2a3a" stroke-width="1.5"/><path d="M274.42964,433.64648c-1.46664,-5.47358 -20.55746,-11.6706 -29.61059,-9.66556c-9.75256,2.15995 -27.87975,19.20349 -26.41311,24.67707c1.46664,5.47358 25.68702,11.17012 35.21296,8.16441c8.84276,-2.79015 22.27738,-17.70234 20.81074,-23.17592z" data-paper-data="{&quot;fillable&quot;:true}" stroke="#2a2a3a" stroke-width="1.5"/><path d="M274.42964,366.35352c1.46664,-5.47358 -11.96798,-20.38577 -20.81074,-23.17592c-9.52594,-3.00571 -33.74632,2.69083 -35.21296,8.16441c-1.46664,5.47358 16.66055,22.51712 26.41311,24.67707c9.05313,2.00504 28.14395,-4.19198 29.61059,-9.66556z" data-paper-data="{&quot;fillable&quot;:true}" stroke="#2a2a3a" stroke-width="1.5"/><path d="M308.07612,308.07612c4.00694,-4.00694 -0.17169,-23.63858 -6.43467,-30.4763c-6.74685,-7.36599 -30.57058,-14.54283 -34.57752,-10.53589c-4.00694,4.00694 3.1699,27.83067 10.53589,34.57752c6.83772,6.26298 26.46936,10.44161 30.4763,6.43467z" data-paper-data="{&quot;fillable&quot;:true}" stroke="#2a2a3a" stroke-width="1.5"/><path d="M366.35352,274.42964c5.47358,-1.46664 11.6706,-20.55746 9.66556,-29.61059c-2.15995,-9.75256 -19.20349,-27.87975 -24.67707,-26.41311c-5.47358,1.46664 -11.17012,25.68702 -8.16441,35.21296c2.79015,8.84276 17.70234,22.27738 23.17592,20.81074z" data-paper-data="{&quot;fillable&quot;:true}" stroke="#2a2a3a" stroke-width="1.5"/><path d="M433.64648,274.42964c5.47358,1.46664 20.38577,-11.96798 23.17592,-20.81074c3.00571,-9.52594 -2.69083,-33.74632 -8.16441,-35.21296c-5.47358,-1.46664 -22.51712,16.66055 -24.67707,26.41311c-2.00504,9.05313 4.19198,28.14395 9.66556,29.61059z" data-paper-data="{&quot;fillable&quot;:true}" stroke="#2a2a3a" stroke-width="1.5"/><path d="M491.92388,308.07612c4.00694,4.00694 23.63858,-0.17169 30.4763,-6.43467c7.36599,-6.74685 14.54283,-30.57058 10.53589,-34.57752c-4.00694,-4.00694 -27.83067,3.1699 -34.57752,10.53589c-6.26298,6.83772 -10.44161,26.46936 -6.43467,30.4763z" data-paper-data="{&quot;fillable&quot;:true}" stroke="#2a2a3a" stroke-width="1.5"/><path d="M525.57036,366.35352c1.46664,5.47358 20.55746,11.6706 29.61059,9.66556c9.75256,-2.15995 27.87975,-19.20349 26.41311,-24.67707c-1.46664,-5.47358 -25.68702,-11.17012 -35.21296,-8.16441c-8.84276,2.79015 -22.27738,17.70234 -20.81074,23.17592z" data-paper-data="{&quot;fillable&quot;:true}" stroke="#2a2a3a" stroke-width="1.5"/><path d="M525,400l-0.17131,6.54199l-0.51345,6.52406l-0.85419,6.48825l-1.19259,6.43465l-1.52772,6.36342l-1.85866,6.27474l-2.18451,6.16887l-2.50437,6.04609l-2.81737,5.90673l-3.12264,5.75119l-58.0237,-33.5l1.4489,-2.66855l1.30726,-2.74072l1.16203,-2.80538l1.01361,-2.86236l0.86242,-2.91148l0.70886,-2.95263l0.55336,-2.98568l0.39635,-3.01055l0.23824,-3.02717l0.07949,-3.03549z" data-paper-data="{&quot;fillable&quot;:true}" stroke="#2a2a3a" stroke-width="1.5"/><path d="M508.25318,462.5l-3.41935,5.57988l-3.7067,5.39328l-3.98388,5.19189l-4.25014,4.97628l-4.50476,4.74702l-4.74702,4.50476l-4.97628,4.25014l-5.19189,3.98388l-5.39328,3.7067l-5.57988,3.41935l-33.5,-58.0237l2.58906,-1.58658l2.50248,-1.71991l2.40904,-1.84852l2.30899,-1.97207l2.20262,-2.09021l2.09021,-2.20262l1.97207,-2.30899l1.84852,-2.40904l1.71991,-2.50248l1.58658,-2.58906z" data-paper-data="{&quot;fillable&quot;:true}" stroke="#2a2a3a" stroke-width="1.5"/><path d="M462.5,508.25318l-5.75119,3.12264l-5.90673,2.81737l-6.04609,2.50437l-6.16887,2.18451l-6.27474,1.85866l-6.36342,1.52772l-6.43465,1.19259l-6.48825,0.85419l-6.52406,0.51345l-6.54199,0.17131v-67l3.03549,-0.07949l3.02717,-0.23824l3.01055,-0.39635l2.98568,-0.55336l2.95263,-0.70886l2.91148,-0.86242l2.86236,-1.01361l2.80538,-1.16203l2.74072,-1.30726l2.66855,-1.4489z" data-paper-data="{&quot;fillable&quot;:true}" stroke="#2a2a3a" stroke-width="1.5"/><path d="M400,525l-6.54199,-0.17131l-6.52406,-0.51345l-6.48825,-0.85419l-6.43465,-1.19259l-6.36342,-1.52772l-6.27474,-1.85866l-6.16887,-2.18451l-6.04609,-2.50437l-5.90673,-2.81737l-5.75119,-3.12264l33.5,-58.0237l2.66855,1.4489l2.74072,1.30726l2.80538,1.16203l2.86236,1.01361l2.91148,0.86242l2.95263,0.70886l2.98568,0.55336l3.01055,0.39635l3.02717,0.23824l3.03549,0.07949z" data-paper-data="{&quot;fillable&quot;:true}" stroke="#2a2a3a" stroke-width="1.5"/><path d="M337.5,508.25318l-5.57988,-3.41935l-5.39328,-3.7067l-5.19189,-3.98388l-4.97628,-4.25014l-4.74702,-4.50476l-4.50476,-4.74702l-4.25014,-4.97628l-3.98388,-5.19189l-3.7067,-5.39328l-3.41935,-5.57988l58.0237,-33.5l1.58658,2.58906l1.71991,2.50248l1.84852,2.40904l1.97207,2.30899l2.09021,2.20262l2.20262,2.09021l2.30899,1.97207l2.40904,1.84852l2.50248,1.71991l2.58906,1.58658z" data-paper-data="{&quot;fillable&quot;:true}" stroke="#2a2a3a" stroke-width="1.5"/><path d="M291.74682,462.5l-3.12264,-5.75119l-2.81737,-5.90673l-2.50437,-6.04609l-2.18451,-6.16887l-1.85866,-6.27474l-1.52772,-6.36342l-1.19259,-6.43465l-0.85419,-6.48825l-0.51345,-6.52406l-0.17131,-6.54199h67l0.07949,3.03549l0.23824,3.02717l0.39635,3.01055l0.55336,2.98568l0.70886,2.95263l0.86242,2.91148l1.01361,2.86236l1.16203,2.80538l1.30726,2.74072l1.4489,2.66855z" data-paper-data="{&quot;fillable&quot;:true}" stroke="#2a2a3a" stroke-width="1.5"/><path d="M275,400l0.17131,-6.54199l0.51345,-6.52406l0.85419,-6.48825l1.19259,-6.43465l1.52772,-6.36342l1.85866,-6.27474l2.18451,-6.16887l2.50437,-6.04609l2.81737,-5.90673l3.12264,-5.75119l58.0237,33.5l-1.4489,2.66855l-1.30726,2.74072l-1.16203,2.80538l-1.01361,2.86236l-0.86242,2.91148l-0.70886,2.95263l-0.55336,2.98568l-0.39635,3.01055l-0.23824,3.02717l-0.07949,3.03549z" data-paper-data="{&quot;fillable&quot;:true}" stroke="#2a2a3a" stroke-width="1.5"/><path d="M291.74682,337.5l3.41935,-5.57988l3.7067,-5.39328l3.98388,-5.19189l4.25014,-4.97628l4.50476,-4.74702l4.74702,-4.50476l4.97628,-4.25014l5.19189,-3.98388l5.39328,-3.7067l5.57988,-3.41935l33.5,58.0237l-2.58906,1.58658l-2.50248,1.71991l-2.40904,1.84852l-2.30899,1.97207l-2.20262,2.09021l-2.09021,2.20262l-1.97207,2.30899l-1.84852,2.40904l-1.71991,2.50248l-1.58658,2.58906z" data-paper-data="{&quot;fillable&quot;:true}" stroke="#2a2a3a" stroke-width="1.5"/><path d="M337.5,291.74682l5.75119,-3.12264l5.90673,-2.81737l6.04609,-2.50437l6.16887,-2.18451l6.27474,-1.85866l6.36342,-1.52772l6.43465,-1.19259l6.48825,-0.85419l6.52406,-0.51345l6.54199,-0.17131v67l-3.03549,0.07949l-3.02717,0.23824l-3.01055,0.39635l-2.98568,0.55336l-2.95263,0.70886l-2.91148,0.86242l-2.86236,1.01361l-2.80538,1.16203l-2.74072,1.30726l-2.66855,1.4489z" data-paper-data="{&quot;fillable&quot;:true}" stroke="#2a2a3a" stroke-width="1.5"/><path d="M400,275l6.54199,0.17131l6.52406,0.51345l6.48825,0.85419l6.43465,1.19259l6.36342,1.52772l6.27474,1.85866l6.16887,2.18451l6.04609,2.50437l5.90673,2.81737l5.75119,3.12264l-33.5,58.0237l-2.66855,-1.4489l-2.74072,-1.30726l-2.80538,-1.16203l-2.86236,-1.01361l-2.91148,-0.86242l-2.95263,-0.70886l-2.98568,-0.55336l-3.01055,-0.39635l-3.02717,-0.23824l-3.03549,-0.07949z" data-paper-data="{&quot;fillable&quot;:true}" stroke="#2a2a3a" stroke-width="1.5"/><path d="M462.5,291.74682l5.57988,3.41935l5.39328,3.7067l5.19189,3.98388l4.97628,4.25014l4.74702,4.50476l4.50476,4.74702l4.25014,4.97628l3.98388,5.19189l3.7067,5.39328l3.41935,5.57988l-58.0237,33.5l-1.58658,-2.58906l-1.71991,-2.50248l-1.84852,-2.40904l-1.97207,-2.30899l-2.09021,-2.20262l-2.20262,-2.09021l-2.30899,-1.97207l-2.40904,-1.84852l-2.50248,-1.71991l-2.58906,-1.58658z" data-paper-data="{&quot;fillable&quot;:true}" stroke="#2a2a3a" stroke-width="1.5"/><path d="M508.25318,337.5l3.12264,5.75119l2.81737,5.90673l2.50437,6.04609l2.18451,6.16887l1.85866,6.27474l1.52772,6.36342l1.19259,6.43465l0.85419,6.48825l0.51345,6.52406l0.17131,6.54199l-67,0l-0.07949,-3.03549l-0.23824,-3.02717l-0.39635,-3.01055l-0.55336,-2.98568l-0.70886,-2.95263l-0.86242,-2.91148l-1.01361,-2.86236l-1.16203,-2.80538l-1.30726,-2.74072l-1.4489,-2.66855z" data-paper-data="{&quot;fillable&quot;:true}" stroke="#2a2a3a" stroke-width="1.5"/><path d="M462,400c0,3.66667 15.14168,10.70151 23.4,11c8.99018,0.32494 28.6,-7.33333 28.6,-11c0,-3.66667 -19.60982,-11.32494 -28.6,-11c-8.25832,0.29849 -23.4,7.33333 -23.4,11z" data-paper-data="{&quot;fillable&quot;:true}" stroke="#2a2a3a" stroke-width="1.5"/><path d="M453.69358,431c-1.83333,3.17543 7.76232,16.83862 14.76499,21.22628c7.62325,4.7765 28.43499,7.94915 30.26833,4.77372c1.83333,-3.17543 -11.32013,-19.6126 -19.26833,-23.82628c-7.30116,-3.87066 -23.93166,-5.34915 -25.76499,-2.17372z" data-paper-data="{&quot;fillable&quot;:true}" stroke="#2a2a3a" stroke-width="1.5"/><path d="M431,453.69358c-3.17543,1.83333 -1.69694,18.46383 2.17372,25.76499c4.21368,7.9482 20.65085,21.10166 23.82628,19.26833c3.17543,-1.83333 0.00278,-22.64507 -4.77372,-30.26833c-4.38766,-7.00267 -18.05085,-16.59833 -21.22628,-14.76499z" data-paper-data="{&quot;fillable&quot;:true}" stroke="#2a2a3a" stroke-width="1.5"/><path d="M400,462c-3.66667,0 -10.70151,15.14168 -11,23.4c-0.32494,8.99018 7.33333,28.6 11,28.6c3.66667,0 11.32494,-19.60982 11,-28.6c-0.29849,-8.25832 -7.33333,-23.4 -11,-23.4z" data-paper-data="{&quot;fillable&quot;:true}" stroke="#2a2a3a" stroke-width="1.5"/><path d="M369,453.69358c-3.17543,-1.83333 -16.83862,7.76232 -21.22628,14.76499c-4.7765,7.62325 -7.94915,28.43499 -4.77372,30.26833c3.17543,1.83333 19.6126,-11.32013 23.82628,-19.26833c3.87066,-7.30116 5.34915,-23.93166 2.17372,-25.76499z" data-paper-data="{&quot;fillable&quot;:true}" stroke="#2a2a3a" stroke-width="1.5"/><path d="M346.30642,431c-1.83333,-3.17543 -18.46383,-1.69694 -25.76499,2.17372c-7.9482,4.21368 -21.10166,20.65085 -19.26833,23.82628c1.83333,3.17543 22.64507,0.00278 30.26833,-4.77372c7.00267,-4.38766 16.59833,-18.05085 14.76499,-21.22628z" data-paper-data="{&quot;fillable&quot;:true}" stroke="#2a2a3a" stroke-width="1.5"/><path d="M338,400c0,-3.66667 -15.14168,-10.70151 -23.4,-11c-8.99018,-0.32494 -28.6,7.33333 -28.6,11c0,3.66667 19.60982,11.32494 28.6,11c8.25832,-0.29849 23.4,-7.33333 23.4,-11z" data-paper-data="{&quot;fillable&quot;:true}" stroke="#2a2a3a" stroke-width="1.5"/><path d="M346.30642,369c1.83333,-3.17543 -7.76232,-16.83862 -14.76499,-21.22628c-7.62325,-4.7765 -28.43499,-7.94915 -30.26833,-4.77372c-1.83333,3.17543 11.32013,19.6126 19.26833,23.82628c7.30116,3.87066 23.93166,5.34915 25.76499,2.17372z" data-paper-data="{&quot;fillable&quot;:true}" stroke="#2a2a3a" stroke-width="1.5"/><path d="M369,346.30642c3.17543,-1.83333 1.69694,-18.46383 -2.17372,-25.76499c-4.21368,-7.9482 -20.65085,-21.10166 -23.82628,-19.26833c-3.17543,1.83333 -0.00278,22.64507 4.77372,30.26833c4.38766,7.00267 18.05085,16.59833 21.22628,14.76499z" data-paper-data="{&quot;fillable&quot;:true}" stroke="#2a2a3a" stroke-width="1.5"/><path d="M400,338c3.66667,0 10.70151,-15.14168 11,-23.4c0.32494,-8.99018 -7.33333,-28.6 -11,-28.6c-3.66667,0 -11.32494,19.60982 -11,28.6c0.29849,8.25832 7.33333,23.4 11,23.4z" data-paper-data="{&quot;fillable&quot;:true}" stroke="#2a2a3a" stroke-width="1.5"/><path d="M431,346.30642c3.17543,1.83333 16.83862,-7.76232 21.22628,-14.76499c4.7765,-7.62325 7.94915,-28.43499 4.77372,-30.26833c-3.17543,-1.83333 -19.6126,11.32013 -23.82628,19.26833c-3.87066,7.30116 -5.34915,23.93166 -2.17372,25.76499z" data-paper-data="{&quot;fillable&quot;:true}" stroke="#2a2a3a" stroke-width="1.5"/><path d="M453.69358,369c1.83333,3.17543 18.46383,1.69694 25.76499,-2.17372c7.9482,-4.21368 21.10166,-20.65085 19.26833,-23.82628c-1.83333,-3.17543 -22.64507,-0.00278 -30.26833,4.77372c-7.00267,4.38766 -16.59833,18.05085 -14.76499,21.22628z" data-paper-data="{&quot;fillable&quot;:true}" stroke="#2a2a3a" stroke-width="1.5"/><path d="M479.00147,422.77608c0,-3.31371 2.68629,-6 6,-6c3.31371,0 6,2.68629 6,6c0,3.31371 -2.68629,6 -6,6c-3.31371,0 -6,-2.68629 -6,-6z" data-paper-data="{&quot;fillable&quot;:true}" stroke="#2a2a3a" stroke-width="1.5"/><path d="M456.2254,462.2254c0,-3.31371 2.68629,-6 6,-6c3.31371,0 6,2.68629 6,6c0,3.31371 -2.68629,6 -6,6c-3.31371,0 -6,-2.68629 -6,-6z" data-paper-data="{&quot;fillable&quot;:true}" stroke="#2a2a3a" stroke-width="1.5"/><path d="M416.77608,485.00147c0,-3.31371 2.68629,-6 6,-6c3.31371,0 6,2.68629 6,6c0,3.31371 -2.68629,6 -6,6c-3.31371,0 -6,-2.68629 -6,-6z" data-paper-data="{&quot;fillable&quot;:true}" stroke="#2a2a3a" stroke-width="1.5"/><path d="M371.22392,485.00147c0,-3.31371 2.68629,-6 6,-6c3.31371,0 6,2.68629 6,6c0,3.31371 -2.68629,6 -6,6c-3.31371,0 -6,-2.68629 -6,-6z" data-paper-data="{&quot;fillable&quot;:true}" stroke="#2a2a3a" stroke-width="1.5"/><path d="M331.7746,462.2254c0,-3.31371 2.68629,-6 6,-6c3.31371,0 6,2.68629 6,6c0,3.31371 -2.68629,6 -6,6c-3.31371,0 -6,-2.68629 -6,-6z" data-paper-data="{&quot;fillable&quot;:true}" stroke="#2a2a3a" stroke-width="1.5"/><path d="M308.99853,422.77608c0,-3.31371 2.68629,-6 6,-6c3.31371,0 6,2.68629 6,6c0,3.31371 -2.68629,6 -6,6c-3.31371,0 -6,-2.68629 -6,-6z" data-paper-data="{&quot;fillable&quot;:true}" stroke="#2a2a3a" stroke-width="1.5"/><path d="M308.99853,377.22392c0,-3.31371 2.68629,-6 6,-6c3.31371,0 6,2.68629 6,6c0,3.31371 -2.68629,6 -6,6c-3.31371,0 -6,-2.68629 -6,-6z" data-paper-data="{&quot;fillable&quot;:true}" stroke="#2a2a3a" stroke-width="1.5"/><path d="M331.7746,337.7746c0,-3.31371 2.68629,-6 6,-6c3.31371,0 6,2.68629 6,6c0,3.31371 -2.68629,6 -6,6c-3.31371,0 -6,-2.68629 -6,-6z" data-paper-data="{&quot;fillable&quot;:true}" stroke="#2a2a3a" stroke-width="1.5"/><path d="M371.22392,314.99853c0,-3.31371 2.68629,-6 6,-6c3.31371,0 6,2.68629 6,6c0,3.31371 -2.68629,6 -6,6c-3.31371,0 -6,-2.68629 -6,-6z" data-paper-data="{&quot;fillable&quot;:true}" stroke="#2a2a3a" stroke-width="1.5"/><path d="M416.77608,314.99853c0,-3.31371 2.68629,-6 6,-6c3.31371,0 6,2.68629 6,6c0,3.31371 -2.68629,6 -6,6c-3.31371,0 -6,-2.68629 -6,-6z" data-paper-data="{&quot;fillable&quot;:true}" stroke="#2a2a3a" stroke-width="1.5"/><path d="M456.2254,337.7746c0,-3.31371 2.68629,-6 6,-6c3.31371,0 6,2.68629 6,6c0,3.31371 -2.68629,6 -6,6c-3.31371,0 -6,-2.68629 -6,-6z" data-paper-data="{&quot;fillable&quot;:true}" stroke="#2a2a3a" stroke-width="1.5"/><path d="M479.00147,377.22392c0,-3.31371 2.68629,-6 6,-6c3.31371,0 6,2.68629 6,6c0,3.31371 -2.68629,6 -6,6c-3.31371,0 -6,-2.68629 -6,-6z" data-paper-data="{&quot;fillable&quot;:true}" stroke="#2a2a3a" stroke-width="1.5"/><path d="M458,400l-0.07949,3.03549l-0.23824,3.02717l-0.39635,3.01055l-0.55336,2.98568l-0.70886,2.95263l-0.86242,2.91148l-1.01361,2.86236l-1.16203,2.80538l-1.30726,2.74072l-1.4489,2.66855l-25.98076,-15l0.69947,-1.28827l0.63109,-1.32311l0.56098,-1.35432l0.48933,-1.38183l0.41634,-1.40554l0.34221,-1.42541l0.26714,-1.44136l0.19134,-1.45337l0.11501,-1.46139l0.03837,-1.46541z" data-paper-data="{&quot;fillable&quot;:true}" stroke="#2a2a3a" stroke-width="1.5"/><path d="M450.22947,429l-1.58658,2.58906l-1.71991,2.50248l-1.84852,2.40904l-1.97207,2.30899l-2.09021,2.20262l-2.20262,2.09021l-2.30899,1.97207l-2.40904,1.84852l-2.50248,1.71991l-2.58906,1.58658l-15,-25.98076l1.24989,-0.76594l1.20809,-0.8303l1.16298,-0.89239l1.11469,-0.95203l1.06333,-1.00907l1.00907,-1.06333l0.95203,-1.11469l0.89239,-1.16298l0.8303,-1.20809l0.76594,-1.24989z" data-paper-data="{&quot;fillable&quot;:true}" stroke="#2a2a3a" stroke-width="1.5"/><path d="M429,450.22947l-2.66855,1.4489l-2.74072,1.30726l-2.80538,1.16203l-2.86236,1.01361l-2.91148,0.86242l-2.95263,0.70886l-2.98568,0.55336l-3.01055,0.39635l-3.02717,0.23824l-3.03549,0.07949v-30l1.46541,-0.03837l1.46139,-0.11501l1.45337,-0.19134l1.44136,-0.26714l1.42541,-0.34221l1.40554,-0.41634l1.38183,-0.48933l1.35432,-0.56098l1.32311,-0.63109l1.28827,-0.69947z" data-paper-data="{&quot;fillable&quot;:true}" stroke="#2a2a3a" stroke-width="1.5"/><path d="M400,458l-3.03549,-0.07949l-3.02717,-0.23824l-3.01055,-0.39635l-2.98568,-0.55336l-2.95263,-0.70886l-2.91148,-0.86242l-2.86236,-1.01361l-2.80538,-1.16203l-2.74072,-1.30726l-2.66855,-1.4489l15,-25.98076l1.28827,0.69947l1.32311,0.63109l1.35432,0.56098l1.38183,0.48933l1.40554,0.41634l1.42541,0.34221l1.44136,0.26714l1.45337,0.19134l1.46139,0.11501l1.46541,0.03837z" data-paper-data="{&quot;fillable&quot;:true}" stroke="#2a2a3a" stroke-width="1.5"/><path d="M371,450.22947l-2.58906,-1.58658l-2.50248,-1.71991l-2.40904,-1.84852l-2.30899,-1.97207l-2.20262,-2.09021l-2.09021,-2.20262l-1.97207,-2.30899l-1.84852,-2.40904l-1.71991,-2.50248l-1.58658,-2.58906l25.98076,-15l0.76594,1.24989l0.8303,1.20809l0.89239,1.16298l0.95203,1.11469l1.00907,1.06333l1.06333,1.00907l1.11469,0.95203l1.16298,0.89239l1.20809,0.8303l1.24989,0.76594z" data-paper-data="{&quot;fillable&quot;:true}" stroke="#2a2a3a" stroke-width="1.5"/><path d="M349.77053,429l-1.4489,-2.66855l-1.30726,-2.74072l-1.16203,-2.80538l-1.01361,-2.86236l-0.86242,-2.91148l-0.70886,-2.95263l-0.55336,-2.98568l-0.39635,-3.01055l-0.23824,-3.02717l-0.07949,-3.03549h30l0.03837,1.46541l0.11501,1.46139l0.19134,1.45337l0.26714,1.44136l0.34221,1.42541l0.41634,1.40554l0.48933,1.38183l0.56098,1.35432l0.63109,1.32311l0.69947,1.28827z" data-paper-data="{&quot;fillable&quot;:true}" stroke="#2a2a3a" stroke-width="1.5"/><path d="M342,400l0.07949,-3.03549l0.23824,-3.02717l0.39635,-3.01055l0.55336,-2.98568l0.70886,-2.95263l0.86242,-2.91148l1.01361,-2.86236l1.16203,-2.80538l1.30726,-2.74072l1.4489,-2.66855l25.98076,15l-0.69947,1.28827l-0.63109,1.32311l-0.56098,1.35432l-0.48933,1.38183l-0.41634,1.40554l-0.34221,1.42541l-0.26714,1.44136l-0.19134,1.45337l-0.11501,1.46139l-0.03837,1.46541z" data-paper-data="{&quot;fillable&quot;:true}" stroke="#2a2a3a" stroke-width="1.5"/><path d="M349.77053,371l1.58658,-2.58906l1.71991,-2.50248l1.84852,-2.40904l1.97207,-2.30899l2.09021,-2.20262l2.20262,-2.09021l2.30899,-1.97207l2.40904,-1.84852l2.50248,-1.71991l2.58906,-1.58658l15,25.98076l-1.24989,0.76594l-1.20809,0.8303l-1.16298,0.89239l-1.11469,0.95203l-1.06333,1.00907l-1.00907,1.06333l-0.95203,1.11469l-0.89239,1.16298l-0.8303,1.20809l-0.76594,1.24989z" data-paper-data="{&quot;fillable&quot;:true}" stroke="#2a2a3a" stroke-width="1.5"/><path d="M371,349.77053l2.66855,-1.4489l2.74072,-1.30726l2.80538,-1.16203l2.86236,-1.01361l2.91148,-0.86242l2.95263,-0.70886l2.98568,-0.55336l3.01055,-0.39635l3.02717,-0.23824l3.03549,-0.07949v30l-1.46541,0.03837l-1.46139,0.11501l-1.45337,0.19134l-1.44136,0.26714l-1.42541,0.34221l-1.40554,0.41634l-1.38183,0.48933l-1.35432,0.56098l-1.32311,0.63109l-1.28827,0.69947z" data-paper-data="{&quot;fillable&quot;:true}" stroke="#2a2a3a" stroke-width="1.5"/><path d="M400,342l3.03549,0.07949l3.02717,0.23824l3.01055,0.39635l2.98568,0.55336l2.95263,0.70886l2.91148,0.86242l2.86236,1.01361l2.80538,1.16203l2.74072,1.30726l2.66855,1.4489l-15,25.98076l-1.28827,-0.69947l-1.32311,-0.63109l-1.35432,-0.56098l-1.38183,-0.48933l-1.40554,-0.41634l-1.42541,-0.34221l-1.44136,-0.26714l-1.45337,-0.19134l-1.46139,-0.11501l-1.46541,-0.03837z" data-paper-data="{&quot;fillable&quot;:true}" stroke="#2a2a3a" stroke-width="1.5"/><path d="M429,349.77053l2.58906,1.58658l2.50248,1.71991l2.40904,1.84852l2.30899,1.97207l2.20262,2.09021l2.09021,2.20262l1.97207,2.30899l1.84852,2.40904l1.71991,2.50248l1.58658,2.58906l-25.98076,15l-0.76594,-1.24989l-0.8303,-1.20809l-0.89239,-1.16298l-0.95203,-1.11469l-1.00907,-1.06333l-1.06333,-1.00907l-1.11469,-0.95203l-1.16298,-0.89239l-1.20809,-0.8303l-1.24989,-0.76594z" data-paper-data="{&quot;fillable&quot;:true}" stroke="#2a2a3a" stroke-width="1.5"/><path d="M450.22947,371l1.4489,2.66855l1.30726,2.74072l1.16203,2.80538l1.01361,2.86236l0.86242,2.91148l0.70886,2.95263l0.55336,2.98568l0.39635,3.01055l0.23824,3.02717l0.07949,3.03549h-30l-0.03837,-1.46541l-0.11501,-1.46139l-0.19134,-1.45337l-0.26714,-1.44136l-0.34221,-1.42541l-0.41634,-1.40554l-0.48933,-1.38183l-0.56098,-1.35432l-0.63109,-1.32311l-0.69947,-1.28827z" data-paper-data="{&quot;fillable&quot;:true}" stroke="#2a2a3a" stroke-width="1.5"/><path d="M372,400c0,-15.46397 12.53603,-28 28,-28c15.46397,0 28,12.53603 28,28c0,15.46397 -12.53603,28 -28,28c-15.46397,0 -28,-12.53603 -28,-28z" data-paper-data="{&quot;fillable&quot;:true}" stroke="#2a2a3a" stroke-width="1.5"/><path d="M388,400c0,-6.62742 5.37258,-12 12,-12c6.62742,0 12,5.37258 12,12c0,6.62742 -5.37258,12 -12,12c-6.62742,0 -12,-5.37258 -12,-12z" data-paper-data="{&quot;fillable&quot;:true}" stroke="#2a2a3a" stroke-width="1.5"/></g></svg>