<svg version="1.1" xmlns="http://www.w3.org/2000/svg" xmlns:xlink="http://www.w3.org/1999/xlink" width="800" height="800" viewBox="0,0,800,800"><g fill="#000000" fill-rule="nonzero" stroke="none" stroke-width="none" stroke-linecap="butt" stroke-linejoin="miter" stroke-miterlimit="10" stroke-dasharray="" stroke-dashoffset="0" font-family="none" font-weight="none" font-size="none" text-anchor="none" style="mix-blend-mode: normal"><path d="M0,800v-800h800v800z" stroke="none" stroke-width="1"/><path d="M0,800v-800h800v800z" data-paper-data="{&quot;fillable&quot;:true}" stroke="#2a2a3a" stroke-width="1.5"/><path d="M785,400l-0.52763,20.14934l-1.58144,20.09412l-2.63092,19.98381l-3.67318,19.81873l-4.70538,19.59933l-5.72468,19.32621l-6.72829,19.00012l-7.71346,18.62195l-8.67749,18.19273l-9.61773,17.71366l-21.65064,-12.5l8.9932,-16.56342l8.11402,-17.01139l7.21259,-17.41273l6.29139,-17.76634l5.35295,-18.07126l4.39984,-18.32665l3.43467,-18.5318l2.46008,-18.68616l1.47875,-18.7893l0.49337,-18.84094z" data-paper-data="{&quot;fillable&quot;:true}" stroke="#2a2a3a" stroke-width="1.5"/><path d="M733.41978,592.5l-10.53161,17.18603l-11.41663,16.61129l-12.27035,15.99103l-13.09044,15.32693l-13.87465,14.62083l-14.62083,13.87465l-15.32693,13.09044l-15.99103,12.27035l-16.61129,11.41663l-17.18603,10.53161l-12.5,-21.65064l16.07005,-9.84774l15.53264,-10.67529l14.95265,-11.47357l14.33168,-12.24041l13.67142,-12.9737l12.9737,-13.67142l12.24041,-14.33168l11.47357,-14.95265l10.67529,-15.53264l9.84774,-16.07005z" data-paper-data="{&quot;fillable&quot;:true}" stroke="#2a2a3a" stroke-width="1.5"/><path d="M592.5,733.41978l-17.71366,9.61773l-18.19273,8.67749l-18.62195,7.71346l-19.00012,6.72829l-19.32621,5.72468l-19.59933,4.70538l-19.81873,3.67318l-19.98381,2.63092l-20.09412,1.58144l-20.14934,0.52763v-25l18.84094,-0.49337l18.7893,-1.47875l18.68616,-2.46008l18.5318,-3.43467l18.32665,-4.39984l18.07126,-5.35295l17.76634,-6.29139l17.41273,-7.21259l17.01139,-8.11402l16.56342,-8.9932z" data-paper-data="{&quot;fillable&quot;:true}" stroke="#2a2a3a" stroke-width="1.5"/><path d="M400,785l-20.14934,-0.52763l-20.09412,-1.58144l-19.98381,-2.63092l-19.81873,-3.67318l-19.59933,-4.70538l-19.32621,-5.72468l-19.00012,-6.72829l-18.62195,-7.71346l-18.19273,-8.67749l-17.71366,-9.61773l12.5,-21.65064l16.56342,8.9932l17.01139,8.11402l17.41273,7.21259l17.76634,6.29139l18.07126,5.35295l18.32665,4.39984l18.5318,3.43467l18.68616,2.46008l18.7893,1.47875l18.84094,0.49337z" data-paper-data="{&quot;fillable&quot;:true}" stroke="#2a2a3a" stroke-width="1.5"/><path d="M207.5,733.41978l-17.18603,-10.53161l-16.61129,-11.41663l-15.99103,-12.27035l-15.32693,-13.09044l-14.62083,-13.87465l-13.87465,-14.62083l-13.09044,-15.32693l-12.27035,-15.99103l-11.41663,-16.61129l-10.53161,-17.18603l21.65064,-12.5l9.84774,16.07005l10.67529,15.53264l11.47357,14.95265l12.24041,14.33168l12.9737,13.67142l13.67142,12.9737l14.33168,12.24041l14.95265,11.47357l15.53264,10.67529l16.07005,9.84774z" data-paper-data="{&quot;fillable&quot;:true}" stroke="#2a2a3a" stroke-width="1.5"/><path d="M66.58022,592.5l-9.61773,-17.71366l-8.67749,-18.19273l-7.71346,-18.62195l-6.72829,-19.00012l-5.72468,-19.32621l-4.70538,-19.59933l-3.67318,-19.81873l-2.63092,-19.98381l-1.58144,-20.09412l-0.52763,-20.14934h25l0.49337,18.84094l1.47875,18.7893l2.46008,18.68616l3.43467,18.5318l4.39984,18.32665l5.35295,18.07126l6.29139,17.76634l7.21259,17.41273l8.11402,17.01139l8.9932,16.56342z" data-paper-data="{&quot;fillable&quot;:true}" stroke="#2a2a3a" stroke-width="1.5"/><path d="M15,400l0.52763,-20.14934l1.58144,-20.09412l2.63092,-19.98381l3.67318,-19.81873l4.70538,-19.59933l5.72468,-19.32621l6.72829,-19.00012l7.71346,-18.62195l8.67749,-18.19273l9.61773,-17.71366l21.65064,12.5l-8.9932,16.56342l-8.11402,17.01139l-7.21259,17.41273l-6.29139,17.76634l-5.35295,18.07126l-4.39984,18.32665l-3.43467,18.5318l-2.46008,18.68616l-1.47875,18.7893l-0.49337,18.84094z" data-paper-data="{&quot;fillable&quot;:true}" stroke="#2a2a3a" stroke-width="1.5"/><path d="M66.58022,207.5l10.53161,-17.18603l11.41663,-16.61129l12.27035,-15.99103l13.09044,-15.32693l13.87465,-14.62083l14.62083,-13.87465l15.32693,-13.09044l15.99103,-12.27035l16.61129,-11.41663l17.18603,-10.53161l12.5,21.65064l-16.07005,9.84774l-15.53264,10.67529l-14.95265,11.47357l-14.33168,12.24041l-13.67142,12.9737l-12.9737,13.67142l-12.24041,14.33168l-11.47357,14.95265l-10.67529,15.53264l-9.84774,16.07005z" data-paper-data="{&quot;fillable&quot;:true}" stroke="#2a2a3a" stroke-width="1.5"/><path d="M207.5,66.58022l17.71366,-9.61773l18.19273,-8.67749l18.62195,-7.71346l19.00012,-6.72829l19.32621,-5.72468l19.59933,-4.70538l19.81873,-3.67318l19.98381,-2.63092l20.09412,-1.58144l20.14934,-0.52763v25l-18.84094,0.49337l-18.7893,1.47875l-18.68616,2.46008l-18.5318,3.43467l-18.32665,4.39984l-18.07126,5.35295l-17.76634,6.29139l-17.41273,7.21259l-17.01139,8.11402l-16.56342,8.9932z" data-paper-data="{&quot;fillable&quot;:true}" stroke="#2a2a3a" stroke-width="1.5"/><path d="M400,15l20.14934,0.52763l20.09412,1.58144l19.98381,2.63092l19.81873,3.67318l19.59933,4.70538l19.32621,5.72468l19.00012,6.72829l18.62195,7.71346l18.19273,8.67749l17.71366,9.61773l-12.5,21.65064l-16.56342,-8.9932l-17.01139,-8.11402l-17.41273,-7.21259l-17.76634,-6.29139l-18.07126,-5.35295l-18.32665,-4.39984l-18.5318,-3.43467l-18.68616,-2.46008l-18.7893,-1.47875l-18.84094,-0.49337z" data-paper-data="{&quot;fillable&quot;:true}" stroke="#2a2a3a" stroke-width="1.5"/><path d="M592.5,66.58022l17.18603,10.53161l16.61129,11.41663l15.99103,12.27035l15.32693,13.09044l14.62083,13.87465l13.87465,14.62083l13.09044,15.32693l12.27035,15.99103l11.41663,16.61129l10.53161,17.18603l-21.65064,12.5l-9.84774,-16.07005l-10.67529,-15.53264l-11.47357,-14.95265l-12.24041,-14.33168l-12.9737,-13.67142l-13.67142,-12.9737l-14.33168,-12.24041l-14.95265,-11.47357l-15.53264,-10.67529l-16.07005,-9.84774z" data-paper-data="{&quot;fillable&quot;:true}" stroke="#2a2a3a" stroke-width="1.5"/><path d="M733.41978,207.5l9.61773,17.71366l8.67749,18.19273l7.71346,18.62195l6.72829,19.00012l5.72468,19.32621l4.70538,19.59933l3.67318,19.81873l2.63092,19.98381l1.58144,20.09412l0.52763,20.14934h-25l-0.49337,-18.84094l-1.47875,-18.7893l-2.46008,-18.68616l-3.43467,-18.5318l-4.39984,-18.32665l-5.35295,-18.07126l-6.29139,-17.76634l-7.21259,-17.41273l-8.11402,-17.01139l-8.9932,-16.56342z" data-paper-data="{&quot;fillable&quot;:true}" stroke="#2a2a3a" stroke-width="1.5"/><path d="M766,400c0,-3.31371 2.68629,-6 6,-6c3.31371,0 6,2.68629 6,6c0,3.31371 -2.68629,6 -6,6c-3.31371,0 -6,-2.68629 -6,-6z" data-paper-data="{&quot;fillable&quot;:true}" stroke="#2a2a3a" stroke-width="1.5"/><path d="M716.16145,586c0,-3.31371 2.68629,-6 6,-6c3.31371,0 6,2.68629 6,6c0,3.31371 -2.68629,6 -6,6c-3.31371,0 -6,-2.68629 -6,-6z" data-paper-data="{&quot;fillable&quot;:true}" stroke="#2a2a3a" stroke-width="1.5"/><path d="M580,722.16145c0,-3.31371 2.68629,-6 6,-6c3.31371,0 6,2.68629 6,6c0,3.31371 -2.68629,6 -6,6c-3.31371,0 -6,-2.68629 -6,-6z" data-paper-data="{&quot;fillable&quot;:true}" stroke="#2a2a3a" stroke-width="1.5"/><path d="M394,772c0,-3.31371 2.68629,-6 6,-6c3.31371,0 6,2.68629 6,6c0,3.31371 -2.68629,6 -6,6c-3.31371,0 -6,-2.68629 -6,-6z" data-paper-data="{&quot;fillable&quot;:true}" stroke="#2a2a3a" stroke-width="1.5"/><path d="M208,722.16145c0,-3.31371 2.68629,-6 6,-6c3.31371,0 6,2.68629 6,6c0,3.31371 -2.68629,6 -6,6c-3.31371,0 -6,-2.68629 -6,-6z" data-paper-data="{&quot;fillable&quot;:true}" stroke="#2a2a3a" stroke-width="1.5"/><path d="M71.83855,586c0,-3.31371 2.68629,-6 6,-6c3.31371,0 6,2.68629 6,6c0,3.31371 -2.68629,6 -6,6c-3.31371,0 -6,-2.68629 -6,-6z" data-paper-data="{&quot;fillable&quot;:true}" stroke="#2a2a3a" stroke-width="1.5"/><path d="M22,400c0,-3.31371 2.68629,-6 6,-6c3.31371,0 6,2.68629 6,6c0,3.31371 -2.68629,6 -6,6c-3.31371,0 -6,-2.68629 -6,-6z" data-paper-data="{&quot;fillable&quot;:true}" stroke="#2a2a3a" stroke-width="1.5"/><path d="M71.83855,214c0,-3.31371 2.68629,-6 6,-6c3.31371,0 6,2.68629 6,6c0,3.31371 -2.68629,6 -6,6c-3.31371,0 -6,-2.68629 -6,-6z" data-paper-data="{&quot;fillable&quot;:true}" stroke="#2a2a3a" stroke-width="1.5"/><path d="M208,77.83855c0,-3.31371 2.68629,-6 6,-6c3.31371,0 6,2.68629 6,6c0,3.31371 -2.68629,6 -6,6c-3.31371,0 -6,-2.68629 -6,-6z" data-paper-data="{&quot;fillable&quot;:true}" stroke="#2a2a3a" stroke-width="1.5"/><path d="M394,28c0,-3.31371 2.68629,-6 6,-6c3.31371,0 6,2.68629 6,6c0,3.31371 -2.68629,6 -6,6c-3.31371,0 -6,-2.68629 -6,-6z" data-paper-data="{&quot;fillable&quot;:true}" stroke="#2a2a3a" stroke-width="1.5"/><path d="M580,77.83855c0,-3.31371 2.68629,-6 6,-6c3.31371,0 6,2.68629 6,6c0,3.31371 -2.68629,6 -6,6c-3.31371,0 -6,-2.68629 -6,-6z" data-paper-data="{&quot;fillable&quot;:true}" stroke="#2a2a3a" stroke-width="1.5"/><path d="M716.16145,214c0,-3.31371 2.68629,-6 6,-6c3.31371,0 6,2.68629 6,6c0,3.31371 -2.68629,6 -6,6c-3.31371,0 -6,-2.68629 -6,-6z" data-paper-data="{&quot;fillable&quot;:true}" stroke="#2a2a3a" stroke-width="1.5"/><path d="M760,400l-0.49337,18.84094l-1.47875,18.7893l-2.46008,18.68616l-3.43467,18.5318l-4.39984,18.32665l-5.35295,18.07126l-6.29139,17.76634l-7.21259,17.41273l-8.11402,17.01139l-8.9932,16.56342l-69.28203,-40l6.99471,-12.88266l6.3109,-13.23108l5.60979,-13.54323l4.89331,-13.81827l4.16341,-14.05543l3.4221,-14.25406l2.67141,-14.41362l1.9134,-14.53368l1.15014,-14.6139l0.38373,-14.65407z" data-paper-data="{&quot;fillable&quot;:true}" stroke="#2a2a3a" stroke-width="1.5"/><path d="M711.76915,580l-9.84774,16.07005l-10.67529,15.53264l-11.47357,14.95265l-12.24041,14.33168l-12.9737,13.67142l-13.67142,12.9737l-14.33168,12.24041l-14.95265,11.47357l-15.53264,10.67529l-16.07005,9.84774l-40,-69.28203l12.49893,-7.65935l12.08094,-8.303l11.62984,-8.92389l11.14686,-9.52032l10.63333,-10.09065l10.09065,-10.63333l9.52032,-11.14686l8.92389,-11.62984l8.303,-12.08094l7.65935,-12.49893z" data-paper-data="{&quot;fillable&quot;:true}" stroke="#2a2a3a" stroke-width="1.5"/><path d="M580,711.76915l-16.56342,8.9932l-17.01139,8.11402l-17.41273,7.21259l-17.76634,6.29139l-18.07126,5.35295l-18.32665,4.39984l-18.5318,3.43467l-18.68616,2.46008l-18.7893,1.47875l-18.84094,0.49337v-80l14.65407,-0.38373l14.6139,-1.15014l14.53368,-1.9134l14.41362,-2.67141l14.25406,-3.4221l14.05543,-4.16341l13.81827,-4.89331l13.54323,-5.60979l13.23108,-6.3109l12.88266,-6.99471z" data-paper-data="{&quot;fillable&quot;:true}" stroke="#2a2a3a" stroke-width="1.5"/><path d="M400,760l-18.84094,-0.49337l-18.7893,-1.47875l-18.68616,-2.46008l-18.5318,-3.43467l-18.32665,-4.39984l-18.07126,-5.35295l-17.76634,-6.29139l-17.41273,-7.21259l-17.01139,-8.11402l-16.56342,-8.9932l40,-69.28203l12.88266,6.99471l13.23108,6.3109l13.54323,5.60979l13.81827,4.89331l14.05543,4.16341l14.25406,3.4221l14.41362,2.67141l14.53368,1.9134l14.6139,1.15014l14.65407,0.38373z" data-paper-data="{&quot;fillable&quot;:true}" stroke="#2a2a3a" stroke-width="1.5"/><path d="M220,711.76915l-16.07005,-9.84774l-15.53264,-10.67529l-14.95265,-11.47357l-14.33168,-12.24041l-13.67142,-12.9737l-12.9737,-13.67142l-12.24041,-14.33168l-11.47357,-14.95265l-10.67529,-15.53264l-9.84774,-16.07005l69.28203,-40l7.65935,12.49893l8.303,12.08094l8.92389,11.62984l9.52032,11.14686l10.09065,10.63333l10.63333,10.09065l11.14686,9.52032l11.62984,8.92389l12.08094,8.303l12.49893,7.65935z" data-paper-data="{&quot;fillable&quot;:true}" stroke="#2a2a3a" stroke-width="1.5"/><path d="M88.23085,580l-8.9932,-16.56342l-8.11402,-17.01139l-7.21259,-17.41273l-6.29139,-17.76634l-5.35295,-18.07126l-4.39984,-18.32665l-3.43467,-18.5318l-2.46008,-18.68616l-1.47875,-18.7893l-0.49337,-18.84094h80l0.38373,14.65407l1.15014,14.6139l1.9134,14.53368l2.67141,14.41362l3.4221,14.25406l4.16341,14.05543l4.89331,13.81827l5.60979,13.54323l6.3109,13.23108l6.99471,12.88266z" data-paper-data="{&quot;fillable&quot;:true}" stroke="#2a2a3a" stroke-width="1.5"/><path d="M40,400l0.49337,-18.84094l1.47875,-18.7893l2.46008,-18.68616l3.43467,-18.5318l4.39984,-18.32665l5.35295,-18.07126l6.29139,-17.76634l7.21259,-17.41273l8.11402,-17.01139l8.9932,-16.56342l69.28203,40l-6.99471,12.88266l-6.3109,13.23108l-5.60979,13.54323l-4.89331,13.81827l-4.16341,14.05543l-3.4221,14.25406l-2.67141,14.41362l-1.9134,14.53368l-1.15014,14.6139l-0.38373,14.65407z" data-paper-data="{&quot;fillable&quot;:true}" stroke="#2a2a3a" stroke-width="1.5"/><path d="M88.23085,220l9.84774,-16.07005l10.67529,-15.53264l11.47357,-14.95265l12.24041,-14.33168l12.9737,-13.67142l13.67142,-12.9737l14.33168,-12.24041l14.95265,-11.47357l15.53264,-10.67529l16.07005,-9.84774l40,69.28203l-12.49893,7.65935l-12.08094,8.303l-11.62984,8.92389l-11.14686,9.52032l-10.63333,10.09065l-10.09065,10.63333l-9.52032,11.14686l-8.92389,11.62984l-8.303,12.08094l-7.65935,12.49893z" data-paper-data="{&quot;fillable&quot;:true}" stroke="#2a2a3a" stroke-width="1.5"/><path d="M220,88.23085l16.56342,-8.9932l17.01139,-8.11402l17.41273,-7.21259l17.76634,-6.29139l18.07126,-5.35295l18.32665,-4.39984l18.5318,-3.43467l18.68616,-2.46008l18.7893,-1.47875l18.84094,-0.49337v80l-14.65407,0.38373l-14.6139,1.15014l-14.53368,1.9134l-14.41362,2.67141l-14.25406,3.4221l-14.05543,4.16341l-13.81827,4.89331l-13.54323,5.60979l-13.23108,6.3109l-12.88266,6.99471z" data-paper-data="{&quot;fillable&quot;:true}" stroke="#2a2a3a" stroke-width="1.5"/><path d="M400,40l18.84094,0.49337l18.7893,1.47875l18.68616,2.46008l18.5318,3.43467l18.32665,4.39984l18.07126,5.35295l17.76634,6.29139l17.41273,7.21259l17.01139,8.11402l16.56342,8.9932l-40,69.28203l-12.88266,-6.99471l-13.23108,-6.3109l-13.54323,-5.60979l-13.81827,-4.89331l-14.05543,-4.16341l-14.25406,-3.4221l-14.41362,-2.67141l-14.53368,-1.9134l-14.6139,-1.15014l-14.65407,-0.38373z" data-paper-data="{&quot;fillable&quot;:true}" stroke="#2a2a3a" stroke-width="1.5"/><path d="M580,88.23085l16.07005,9.84774l15.53264,10.67529l14.95265,11.47357l14.33168,12.24041l13.67142,12.9737l12.9737,13.67142l12.24041,14.33168l11.47357,14.95265l10.67529,15.53264l9.84774,16.07005l-69.28203,40l-7.65935,-12.49893l-8.303,-12.08094l-8.92389,-11.62984l-9.52032,-11.14686l-10.09065,-10.63333l-10.63333,-10.09065l-11.14686,-9.52032l-11.62984,-8.92389l-12.08094,-8.303l-12.49893,-7.65935z" data-paper-data="{&quot;fillable&quot;:true}" stroke="#2a2a3a" stroke-width="1.5"/><path d="M711.76915,220l8.9932,16.56342l8.11402,17.01139l7.21259,17.41273l6.29139,17.76634l5.35295,18.07126l4.39984,18.32665l3.43467,18.5318l2.46008,18.68616l1.47875,18.7893l0.49337,18.84094l-80,0l-0.38373,-14.65407l-1.15014,-14.6139l-1.9134,-14.53368l-2.67141,-14.41362l-3.4221,-14.25406l-4.16341,-14.05543l-4.89331,-13.81827l-5.60979,-13.54323l-6.3109,-13.23108l-6.99471,-12.88266z" data-paper-data="{&quot;fillable&quot;:true}" stroke="#2a2a3a" stroke-width="1.5"/><path d="M707.68931,437.7795l17.39594,14.22607l20.32081,-9.59504l-17.39594,-14.22607z" data-paper-data="{&quot;fillable&quot;:true}" stroke="#2a2a3a" stroke-width="1.5"/><path d="M685.3565,521.12665l12.80082,18.46995l22.17837,-3.62217l-12.80082,-18.46995z" data-paper-data="{&quot;fillable&quot;:true}" stroke="#2a2a3a" stroke-width="1.5"/><path d="M649.84137,574.94081c-1.91192,2.73051 4.42226,14.98549 9.74621,19.03212c5.77644,4.39056 22.74626,7.7886 24.65818,5.0581c1.91192,-2.73051 -7.08521,-17.51472 -13.18665,-21.44114c-5.62348,-3.61884 -19.30582,-5.37958 -21.21774,-2.64907z" data-paper-data="{&quot;fillable&quot;:true}" stroke="#2a2a3a" stroke-width="1.5"/><path d="M574.94081,649.84137c-2.73051,1.91192 -0.96977,15.59425 2.64907,21.21774c3.92642,6.10144 18.71063,15.09857 21.44114,13.18665c2.73051,-1.91192 -0.66753,-18.88174 -5.0581,-24.65818c-4.04663,-5.32395 -16.30161,-11.65813 -19.03212,-9.74621z" data-paper-data="{&quot;fillable&quot;:true}" stroke="#2a2a3a" stroke-width="1.5"/><path d="M488.19688,673.63764l12.27087,38.07132l-31.62089,8.47279l-8.40878,-39.10617z" data-paper-data="{&quot;fillable&quot;:true}" stroke="#2a2a3a" stroke-width="1.5"/><path d="M492.79846,687.91439l12.27087,38.07132l-33.06918,8.86086l-8.40878,-39.10617z" data-paper-data="{&quot;fillable&quot;:true}" stroke="#2a2a3a" stroke-width="1.5"/><path d="M368.64146,698.35657c-2.65206,-0.27874 -8.04824,7.86001 -9.36731,12.58982c-1.33492,4.78665 0.76672,10.66995 1.53615,15.99821c0.77878,5.39307 1.53615,15.99821 3.12738,16.16546c1.59124,0.16725 4.53698,-10.04868 6.42003,-15.16198c1.86042,-5.05185 5.13934,-10.36964 4.82879,-15.32923c-0.30686,-4.9007 -3.89298,-13.98353 -6.54504,-14.26227z" data-paper-data="{&quot;fillable&quot;:true}" stroke="#2a2a3a" stroke-width="1.5"/><path d="M277.97901,674.06364c-2.43612,-1.08463 -10.08321,4.98827 -12.79931,9.07897c-2.74874,4.13986 -2.568,10.38466 -3.48276,15.6899c-0.92588,5.36978 -3.48276,15.6899 -2.02108,16.34068c1.46167,0.65078 7.42014,-8.15486 10.79112,-12.43601c3.33047,-4.22969 8.0922,-8.27397 9.32945,-13.08678c1.22255,-4.75567 0.6187,-14.50213 -1.81742,-15.58676z" data-paper-data="{&quot;fillable&quot;:true}" stroke="#2a2a3a" stroke-width="1.5"/><path d="M216.44642,643.58383c-2.12969,-1.60484 -13.22545,4.62408 -17.22175,9.56092c-4.35658,5.38191 -8.98054,20.77966 -6.85085,22.3845c2.12969,1.60484 15.65643,-7.0842 19.62901,-12.75546c3.64406,-5.20227 6.57328,-17.58512 4.44359,-19.18996z" data-paper-data="{&quot;fillable&quot;:true}" stroke="#2a2a3a" stroke-width="1.5"/><path d="M184.33243,615.66757c-1.88562,-1.88562 -13.74029,2.73845 -18.38478,7.07107c-5.0632,4.72321 -11.78511,19.32759 -9.89949,21.2132c1.88562,1.88562 16.48999,-4.8363 21.2132,-9.89949c4.33261,-4.64448 8.95669,-16.49916 7.07107,-18.38478z" data-paper-data="{&quot;fillable&quot;:true}" stroke="#2a2a3a" stroke-width="1.5"/><path d="M156.41617,583.55358c-1.60484,-2.12969 -13.98769,0.79952 -19.18996,4.44359c-5.67127,3.97258 -14.3603,17.49932 -12.75546,19.62901c1.60484,2.12969 17.0026,-2.49427 22.3845,-6.85085c4.93684,-3.9963 11.16576,-15.09206 9.56092,-17.22175z" data-paper-data="{&quot;fillable&quot;:true}" stroke="#2a2a3a" stroke-width="1.5"/><path d="M111.83302,483.42535l-38.42226,11.12338l-3.5197,-13.13572l38.83635,-9.578z" data-paper-data="{&quot;fillable&quot;:true}" stroke="#2a2a3a" stroke-width="1.5"/><path d="M96.56299,480.2339c0,-2.20914 1.79086,-4 4,-4c2.20914,0 4,1.79086 4,4c0,2.20914 -1.79086,4 -4,4c-2.20914,0 -4,-1.79086 -4,-4z" data-paper-data="{&quot;fillable&quot;:true}" stroke="#2a2a3a" stroke-width="1.5"/><path d="M84.97188,483.33973c0,-2.20914 1.79086,-4 4,-4c2.20914,0 4,1.79086 4,4c0,2.20914 -1.79086,4 -4,4c-2.20914,0 -4,-1.79086 -4,-4z" data-paper-data="{&quot;fillable&quot;:true}" stroke="#2a2a3a" stroke-width="1.5"/><path d="M73.38077,486.44556c0,-2.20914 1.79086,-4 4,-4c2.20914,0 4,1.79086 4,4c0,2.20914 -1.79086,4 -4,4c-2.20914,0 -4,-1.79086 -4,-4z" data-paper-data="{&quot;fillable&quot;:true}" stroke="#2a2a3a" stroke-width="1.5"/><path d="M100.02641,344.85612l-29.5056,-5.42399l1.27717,-6.57703l29.39123,6.01298z" data-paper-data="{&quot;fillable&quot;:true}" stroke="#2a2a3a" stroke-width="1.5"/><path d="M87.68453,340.90607c0,-4.41828 3.58172,-8 8,-8c4.41828,0 8,3.58172 8,8c0,4.41828 -3.58172,8 -8,8c-4.41828,0 -8,-3.58172 -8,-8z" data-paper-data="{&quot;fillable&quot;:true}" stroke="#2a2a3a" stroke-width="1.5"/><path d="M68.05127,337.09355c0,-4.41828 3.58172,-8 8,-8c4.41828,0 8,3.58172 8,8c0,4.41828 -3.58172,8 -8,8c-4.41828,0 -8,-3.58172 -8,-8z" data-paper-data="{&quot;fillable&quot;:true}" stroke="#2a2a3a" stroke-width="1.5"/><path d="M191.4035,191.4035c2.35702,-2.35702 -0.40502,-13.13845 -3.53553,-17.67767c-3.12387,-4.52958 -9.94234,-6.61799 -15.2028,-9.54594c-5.34025,-2.97236 -15.2028,-9.54594 -16.61701,-8.13173c-1.41421,1.41421 5.15936,11.27676 8.13173,16.61701c2.92796,5.26046 5.01636,12.07892 9.54594,15.2028c4.53922,3.13051 15.32065,5.89256 17.67767,3.53553z" data-paper-data="{&quot;fillable&quot;:true}" stroke="#2a2a3a" stroke-width="1.5"/><path d="M164.1903,170.1903c0,-3.31371 2.68629,-6 6,-6c3.31371,0 6,2.68629 6,6c0,3.31371 -2.68629,6 -6,6c-3.31371,0 -6,-2.68629 -6,-6z" data-paper-data="{&quot;fillable&quot;:true}" stroke="#2a2a3a" stroke-width="1.5"/><path d="M319.38291,116.22917l-12.29752,-43.28708l9.85207,-2.63986l10.99357,43.63647z" data-paper-data="{&quot;fillable&quot;:true}" stroke="#2a2a3a" stroke-width="1.5"/><path d="M313.29562,76.41485l5.13922,-11.72981l-10.3156,-7.58871l-5.13922,11.72981z" data-paper-data="{&quot;fillable&quot;:true}" stroke="#2a2a3a" stroke-width="1.5"/><path d="M472.64571,110.22225c0,-2.76142 2.23858,-5 5,-5c2.76142,0 5,2.23858 5,5c0,2.76142 -2.23858,5 -5,5c-2.76142,0 -5,-2.23858 -5,-5z" data-paper-data="{&quot;fillable&quot;:true}" stroke="#2a2a3a" stroke-width="1.5"/><path d="M497.2284,103.10717c0,-2.76142 2.23858,-5 5,-5c2.76142,0 5,2.23858 5,5c0,2.76142 -2.23858,5 -5,5c-2.76142,0 -5,-2.23858 -5,-5z" data-paper-data="{&quot;fillable&quot;:true}" stroke="#2a2a3a" stroke-width="1.5"/><path d="M523.15981,98.07441c0,-2.76142 2.23858,-5 5,-5c2.76142,0 5,2.23858 5,5c0,2.76142 -2.23858,5 -5,5c-2.76142,0 -5,-2.23858 -5,-5z" data-paper-data="{&quot;fillable&quot;:true}" stroke="#2a2a3a" stroke-width="1.5"/><path d="M605.66436,168.04705l6.865,6.27338l6.67374,6.47647l6.47647,6.67374l6.27338,6.865z" data-paper-data="{&quot;fillable&quot;:true}" stroke="#2a2a3a" stroke-width="1.5"/><path d="M618.93303,153.08234l7.30791,6.67811l7.1043,6.89431l6.89431,7.1043l6.67811,7.30791z" data-paper-data="{&quot;fillable&quot;:true}" stroke="#2a2a3a" stroke-width="1.5"/><path d="M682.67553,321.57783c0,-5.52285 4.47715,-10 10,-10c5.52285,0 10,4.47715 10,10c0,5.52285 -4.47715,10 -10,10c-5.52285,0 -10,-4.47715 -10,-10z" data-paper-data="{&quot;fillable&quot;:true}" stroke="#2a2a3a" stroke-width="1.5"/><path d="M705.85775,315.36617c0,-5.52285 4.47715,-10 10,-10c5.52285,0 10,4.47715 10,10c0,5.52285 -4.47715,10 -10,10c-5.52285,0 -10,-4.47715 -10,-10z" data-paper-data="{&quot;fillable&quot;:true}" stroke="#2a2a3a" stroke-width="1.5"/><path d="M680,400l-0.38373,14.65407l-1.15014,14.6139l-1.9134,14.53368l-2.67141,14.41362l-3.4221,14.25406l-4.16341,14.05543l-4.89331,13.81827l-5.60979,13.54323l-6.3109,13.23108l-6.99471,12.88266l-51.96152,-30l5.49585,-10.12209l4.95857,-10.39585l4.40769,-10.64111l3.84474,-10.85721l3.27125,-11.04355l2.68879,-11.19962l2.09896,-11.32499l1.50338,-11.41932l0.90368,-11.48235l0.3015,-11.51391z" data-paper-data="{&quot;fillable&quot;:true}" stroke="#2a2a3a" stroke-width="1.5"/><path d="M642.48711,540l-7.65935,12.49893l-8.303,12.08094l-8.92389,11.62984l-9.52032,11.14686l-10.09065,10.63333l-10.63333,10.09065l-11.14686,9.52032l-11.62984,8.92389l-12.08094,8.303l-12.49893,7.65935l-30,-51.96152l9.82059,-6.01806l9.49217,-6.52379l9.13773,-7.01163l8.75825,-7.48025l8.35476,-7.92837l7.92837,-8.35476l7.48025,-8.75825l7.01163,-9.13773l6.52379,-9.49217l6.01806,-9.82059z" data-paper-data="{&quot;fillable&quot;:true}" stroke="#2a2a3a" stroke-width="1.5"/><path d="M540,642.48711l-12.88266,6.99471l-13.23108,6.3109l-13.54323,5.60979l-13.81827,4.89331l-14.05543,4.16341l-14.25406,3.4221l-14.41362,2.67141l-14.53368,1.9134l-14.6139,1.15014l-14.65407,0.38373v-60l11.51391,-0.3015l11.48235,-0.90368l11.41932,-1.50338l11.32499,-2.09896l11.19962,-2.68879l11.04355,-3.27125l10.85721,-3.84474l10.64111,-4.40769l10.39585,-4.95857l10.12209,-5.49585z" data-paper-data="{&quot;fillable&quot;:true}" stroke="#2a2a3a" stroke-width="1.5"/><path d="M400,680l-14.65407,-0.38373l-14.6139,-1.15014l-14.53368,-1.9134l-14.41362,-2.67141l-14.25406,-3.4221l-14.05543,-4.16341l-13.81827,-4.89331l-13.54323,-5.60979l-13.23108,-6.3109l-12.88266,-6.99471l30,-51.96152l10.12209,5.49585l10.39585,4.95857l10.64111,4.40769l10.85721,3.84474l11.04355,3.27125l11.19962,2.68879l11.32499,2.09896l11.41932,1.50338l11.48235,0.90368l11.51391,0.3015z" data-paper-data="{&quot;fillable&quot;:true}" stroke="#2a2a3a" stroke-width="1.5"/><path d="M260,642.48711l-12.49893,-7.65935l-12.08094,-8.303l-11.62984,-8.92389l-11.14686,-9.52032l-10.63333,-10.09065l-10.09065,-10.63333l-9.52032,-11.14686l-8.92389,-11.62984l-8.303,-12.08094l-7.65935,-12.49893l51.96152,-30l6.01806,9.82059l6.52379,9.49217l7.01163,9.13773l7.48025,8.75825l7.92837,8.35476l8.35476,7.92837l8.75825,7.48025l9.13773,7.01163l9.49217,6.52379l9.82059,6.01806z" data-paper-data="{&quot;fillable&quot;:true}" stroke="#2a2a3a" stroke-width="1.5"/><path d="M157.51289,540l-6.99471,-12.88266l-6.3109,-13.23108l-5.60979,-13.54323l-4.89331,-13.81827l-4.16341,-14.05543l-3.4221,-14.25406l-2.67141,-14.41362l-1.9134,-14.53368l-1.15014,-14.6139l-0.38373,-14.65407l60,0l0.3015,11.51391l0.90368,11.48235l1.50338,11.41932l2.09896,11.32499l2.68879,11.19962l3.27125,11.04355l3.84474,10.85721l4.40769,10.64111l4.95857,10.39585l5.49585,10.12209z" data-paper-data="{&quot;fillable&quot;:true}" stroke="#2a2a3a" stroke-width="1.5"/><path d="M120,400l0.38373,-14.65407l1.15014,-14.6139l1.9134,-14.53368l2.67141,-14.41362l3.4221,-14.25406l4.16341,-14.05543l4.89331,-13.81827l5.60979,-13.54323l6.3109,-13.23108l6.99471,-12.88266l51.96152,30l-5.49585,10.12209l-4.95857,10.39585l-4.40769,10.64111l-3.84474,10.85721l-3.27125,11.04355l-2.68879,11.19962l-2.09896,11.32499l-1.50338,11.41932l-0.90368,11.48235l-0.3015,11.51391z" data-paper-data="{&quot;fillable&quot;:true}" stroke="#2a2a3a" stroke-width="1.5"/><path d="M157.51289,260l7.65935,-12.49893l8.303,-12.08094l8.92389,-11.62984l9.52032,-11.14686l10.09065,-10.63333l10.63333,-10.09065l11.14686,-9.52032l11.62984,-8.92389l12.08094,-8.303l12.49893,-7.65935l30,51.96152l-9.82059,6.01806l-9.49217,6.52379l-9.13773,7.01163l-8.75825,7.48025l-8.35476,7.92837l-7.92837,8.35476l-7.48025,8.75825l-7.01163,9.13773l-6.52379,9.49217l-6.01806,9.82059z" data-paper-data="{&quot;fillable&quot;:true}" stroke="#2a2a3a" stroke-width="1.5"/><path d="M260,157.51289l12.88266,-6.99471l13.23108,-6.3109l13.54323,-5.60979l13.81827,-4.89331l14.05543,-4.16341l14.25406,-3.4221l14.41362,-2.67141l14.53368,-1.9134l14.6139,-1.15014l14.65407,-0.38373v60l-11.51391,0.3015l-11.48235,0.90368l-11.41932,1.50338l-11.32499,2.09896l-11.19962,2.68879l-11.04355,3.27125l-10.85721,3.84474l-10.64111,4.40769l-10.39585,4.95857l-10.12209,5.49585z" data-paper-data="{&quot;fillable&quot;:true}" stroke="#2a2a3a" stroke-width="1.5"/><path d="M400,120l14.65407,0.38373l14.6139,1.15014l14.53368,1.9134l14.41362,2.67141l14.25406,3.4221l14.05543,4.16341l13.81827,4.89331l13.54323,5.60979l13.23108,6.3109l12.88266,6.99471l-30,51.96152l-10.12209,-5.49585l-10.39585,-4.95857l-10.64111,-4.40769l-10.85721,-3.84474l-11.04355,-3.27125l-11.19962,-2.68879l-11.32499,-2.09896l-11.41932,-1.50338l-11.48235,-0.90368l-11.51391,-0.3015z" data-paper-data="{&quot;fillable&quot;:true}" stroke="#2a2a3a" stroke-width="1.5"/><path d="M540,157.51289l12.49893,7.65935l12.08094,8.303l11.62984,8.92389l11.14686,9.52032l10.63333,10.09065l10.09065,10.63333l9.52032,11.14686l8.92389,11.62984l8.303,12.08094l7.65935,12.49893l-51.96152,30l-6.01806,-9.82059l-6.52379,-9.49217l-7.01163,-9.13773l-7.48025,-8.75825l-7.92837,-8.35476l-8.35476,-7.92837l-8.75825,-7.48025l-9.13773,-7.01163l-9.49217,-6.52379l-9.82059,-6.01806z" data-paper-data="{&quot;fillable&quot;:true}" stroke="#2a2a3a" stroke-width="1.5"/><path d="M642.48711,260l6.99471,12.88266l6.3109,13.23108l5.60979,13.54323l4.89331,13.81827l4.16341,14.05543l3.4221,14.25406l2.67141,14.41362l1.9134,14.53368l1.15014,14.6139l0.38373,14.65407h-60l-0.3015,-11.51391l-0.90368,-11.48235l-1.50338,-11.41932l-2.09896,-11.32499l-2.68879,-11.19962l-3.27125,-11.04355l-3.84474,-10.85721l-4.40769,-10.64111l-4.95857,-10.39585l-5.49585,-10.12209z" data-paper-data="{&quot;fillable&quot;:true}" stroke="#2a2a3a" stroke-width="1.5"/><path d="M630,400c0,6 12.12933,17.66434 18.9,18c7.17189,0.35555 23.1,-12 23.1,-18c0,-6 -15.92811,-18.35555 -23.1,-18c-6.77067,0.33566 -18.9,12 -18.9,18z" data-paper-data="{&quot;fillable&quot;:true}" stroke="#2a2a3a" stroke-width="1.5"/><path d="M642,400c0,-4.41828 3.58172,-8 8,-8c4.41828,0 8,3.58172 8,8c0,4.41828 -3.58172,8 -8,8c-4.41828,0 -8,-3.58172 -8,-8z" data-paper-data="{&quot;fillable&quot;:true}" stroke="#2a2a3a" stroke-width="1.5"/><path d="M400,630c-6,0 -17.66434,12.12933 -18,18.9c-0.35555,7.17189 12,23.1 18,23.1c6,0 18.35555,-15.92811 18,-23.1c-0.33566,-6.77067 -12,-18.9 -18,-18.9z" data-paper-data="{&quot;fillable&quot;:true}" stroke="#2a2a3a" stroke-width="1.5"/><path d="M392,650c0,-4.41828 3.58172,-8 8,-8c4.41828,0 8,3.58172 8,8c0,4.41828 -3.58172,8 -8,8c-4.41828,0 -8,-3.58172 -8,-8z" data-paper-data="{&quot;fillable&quot;:true}" stroke="#2a2a3a" stroke-width="1.5"/><path d="M170,400c0,-6 -12.12933,-17.66434 -18.9,-18c-7.17189,-0.35555 -23.1,12 -23.1,18c0,6 15.92811,18.35555 23.1,18c6.77067,-0.33566 18.9,-12 18.9,-18z" data-paper-data="{&quot;fillable&quot;:true}" stroke="#2a2a3a" stroke-width="1.5"/><path d="M142,400c0,-4.41828 3.58172,-8 8,-8c4.41828,0 8,3.58172 8,8c0,4.41828 -3.58172,8 -8,8c-4.41828,0 -8,-3.58172 -8,-8z" data-paper-data="{&quot;fillable&quot;:true}" stroke="#2a2a3a" stroke-width="1.5"/><path d="M400,170c6,0 17.66434,-12.12933 18,-18.9c0.35555,-7.17189 -12,-23.1 -18,-23.1c-6,0 -18.35555,15.92811 -18,23.1c0.33566,6.77067 12,18.9 18,18.9z" data-paper-data="{&quot;fillable&quot;:true}" stroke="#2a2a3a" stroke-width="1.5"/><path d="M392,150c0,-4.41828 3.58172,-8 8,-8c4.41828,0 8,3.58172 8,8c0,4.41828 -3.58172,8 -8,8c-4.41828,0 -8,-3.58172 -8,-8z" data-paper-data="{&quot;fillable&quot;:true}" stroke="#2a2a3a" stroke-width="1.5"/><path d="M626.99257,460.82248l12.86662,13.80036l18.043,-5.51815l-12.86662,-13.80036z" data-paper-data="{&quot;fillable&quot;:true}" stroke="#2a2a3a" stroke-width="1.5"/><path d="M566.17009,566.17009l4.24264,18.38478l18.38478,4.24264l-4.24264,-18.38478z" data-paper-data="{&quot;fillable&quot;:true}" stroke="#2a2a3a" stroke-width="1.5"/><path d="M460.82248,626.99257l-5.51815,18.043l13.80036,12.86662l5.51815,-18.043z" data-paper-data="{&quot;fillable&quot;:true}" stroke="#2a2a3a" stroke-width="1.5"/><path d="M339.17752,626.99257l-13.80036,12.86662l5.51815,18.043l13.80036,-12.86662z" data-paper-data="{&quot;fillable&quot;:true}" stroke="#2a2a3a" stroke-width="1.5"/><path d="M233.82991,566.17009l-18.38478,4.24264l-4.24264,18.38478l18.38478,-4.24264z" data-paper-data="{&quot;fillable&quot;:true}" stroke="#2a2a3a" stroke-width="1.5"/><path d="M173.00743,460.82248l-18.043,-5.51815l-12.86662,13.80036l18.043,5.51815z" data-paper-data="{&quot;fillable&quot;:true}" stroke="#2a2a3a" stroke-width="1.5"/><path d="M173.00743,339.17752l-12.86662,-13.80036l-18.043,5.51815l12.86662,13.80036z" data-paper-data="{&quot;fillable&quot;:true}" stroke="#2a2a3a" stroke-width="1.5"/><path d="M233.82991,233.82991l-4.24264,-18.38478l-18.38478,-4.24264l4.24264,18.38478z" data-paper-data="{&quot;fillable&quot;:true}" stroke="#2a2a3a" stroke-width="1.5"/><path d="M339.17752,173.00743l5.51815,-18.043l-13.80036,-12.86662l-5.51815,18.043z" data-paper-data="{&quot;fillable&quot;:true}" stroke="#2a2a3a" stroke-width="1.5"/><path d="M460.82248,173.00743l13.80036,-12.86662l-5.51815,-18.043l-13.80036,12.86662z" data-paper-data="{&quot;fillable&quot;:true}" stroke="#2a2a3a" stroke-width="1.5"/><path d="M566.17009,233.82991l18.38478,-4.24264l4.24264,-18.38478l-18.38478,4.24264z" data-paper-data="{&quot;fillable&quot;:true}" stroke="#2a2a3a" stroke-width="1.5"/><path d="M626.99257,339.17752l18.043,5.51815l12.86662,-13.80036l-18.043,-5.51815z" data-paper-data="{&quot;fillable&quot;:true}" stroke="#2a2a3a" stroke-width="1.5"/><path d="M620,400l-0.3015,11.51391l-0.90368,11.48235l-1.50338,11.41932l-2.09896,11.32499l-2.68879,11.19962l-3.27125,11.04355l-3.84474,10.85721l-4.40769,10.64111l-4.95857,10.39585l-5.49585,10.12209l-60.62178,-35l3.74717,-6.90143l3.38084,-7.08808l3.00525,-7.2553l2.62141,-7.40264l2.2304,-7.52969l1.83327,-7.6361l1.43111,-7.72158l1.02503,-7.7859l0.61615,-7.82888l0.20557,-7.85039z" data-paper-data="{&quot;fillable&quot;:true}" stroke="#2a2a3a" stroke-width="1.5"/><path d="M590.52559,510l-6.01806,9.82059l-6.52379,9.49217l-7.01163,9.13773l-7.48025,8.75825l-7.92837,8.35476l-8.35476,7.92837l-8.75825,7.48025l-9.13773,7.01163l-9.49217,6.52379l-9.82059,6.01806l-35,-60.62178l6.69586,-4.10323l6.47193,-4.44804l6.23027,-4.78065l5.97153,-5.10017l5.69643,-5.40571l5.40571,-5.69643l5.10017,-5.97153l4.78065,-6.23027l4.44804,-6.47193l4.10323,-6.69586z" data-paper-data="{&quot;fillable&quot;:true}" stroke="#2a2a3a" stroke-width="1.5"/><path d="M510,590.52559l-10.12209,5.49585l-10.39585,4.95857l-10.64111,4.40769l-10.85721,3.84474l-11.04355,3.27125l-11.19962,2.68879l-11.32499,2.09896l-11.41932,1.50338l-11.48235,0.90368l-11.51391,0.3015v-70l7.85039,-0.20557l7.82888,-0.61615l7.7859,-1.02503l7.72158,-1.43111l7.6361,-1.83327l7.52969,-2.2304l7.40264,-2.62141l7.2553,-3.00525l7.08808,-3.38084l6.90143,-3.74717z" data-paper-data="{&quot;fillable&quot;:true}" stroke="#2a2a3a" stroke-width="1.5"/><path d="M400,620l-11.51391,-0.3015l-11.48235,-0.90368l-11.41932,-1.50338l-11.32499,-2.09896l-11.19962,-2.68879l-11.04355,-3.27125l-10.85721,-3.84474l-10.64111,-4.40769l-10.39585,-4.95857l-10.12209,-5.49585l35,-60.62178l6.90143,3.74717l7.08808,3.38084l7.2553,3.00525l7.40264,2.62141l7.52969,2.2304l7.6361,1.83327l7.72158,1.43111l7.7859,1.02503l7.82888,0.61615l7.85039,0.20557z" data-paper-data="{&quot;fillable&quot;:true}" stroke="#2a2a3a" stroke-width="1.5"/><path d="M290,590.52559l-9.82059,-6.01806l-9.49217,-6.52379l-9.13773,-7.01163l-8.75825,-7.48025l-8.35476,-7.92837l-7.92837,-8.35476l-7.48025,-8.75825l-7.01163,-9.13773l-6.52379,-9.49217l-6.01806,-9.82059l60.62178,-35l4.10323,6.69586l4.44804,6.47193l4.78065,6.23027l5.10017,5.97153l5.40571,5.69643l5.69643,5.40571l5.97153,5.10017l6.23027,4.78065l6.47193,4.44804l6.69586,4.10323z" data-paper-data="{&quot;fillable&quot;:true}" stroke="#2a2a3a" stroke-width="1.5"/><path d="M209.47441,510l-5.49585,-10.12209l-4.95857,-10.39585l-4.40769,-10.64111l-3.84474,-10.85721l-3.27125,-11.04355l-2.68879,-11.19962l-2.09896,-11.32499l-1.50338,-11.41932l-0.90368,-11.48235l-0.3015,-11.51391h70l0.20557,7.85039l0.61615,7.82888l1.02503,7.7859l1.43111,7.72158l1.83327,7.6361l2.2304,7.52969l2.62141,7.40264l3.00525,7.2553l3.38084,7.08808l3.74717,6.90143z" data-paper-data="{&quot;fillable&quot;:true}" stroke="#2a2a3a" stroke-width="1.5"/><path d="M180,400l0.3015,-11.51391l0.90368,-11.48235l1.50338,-11.41932l2.09896,-11.32499l2.68879,-11.19962l3.27125,-11.04355l3.84474,-10.85721l4.40769,-10.64111l4.95857,-10.39585l5.49585,-10.12209l60.62178,35l-3.74717,6.90143l-3.38084,7.08808l-3.00525,7.2553l-2.62141,7.40264l-2.2304,7.52969l-1.83327,7.6361l-1.43111,7.72158l-1.02503,7.7859l-0.61615,7.82888l-0.20557,7.85039z" data-paper-data="{&quot;fillable&quot;:true}" stroke="#2a2a3a" stroke-width="1.5"/><path d="M209.47441,290l6.01806,-9.82059l6.52379,-9.49217l7.01163,-9.13773l7.48025,-8.75825l7.92837,-8.35476l8.35476,-7.92837l8.75825,-7.48025l9.13773,-7.01163l9.49217,-6.52379l9.82059,-6.01806l35,60.62178l-6.69586,4.10323l-6.47193,4.44804l-6.23027,4.78065l-5.97153,5.10017l-5.69643,5.40571l-5.40571,5.69643l-5.10017,5.97153l-4.78065,6.23027l-4.44804,6.47193l-4.10323,6.69586z" data-paper-data="{&quot;fillable&quot;:true}" stroke="#2a2a3a" stroke-width="1.5"/><path d="M290,209.47441l10.12209,-5.49585l10.39585,-4.95857l10.64111,-4.40769l10.85721,-3.84474l11.04355,-3.27125l11.19962,-2.68879l11.32499,-2.09896l11.41932,-1.50338l11.48235,-0.90368l11.51391,-0.3015l0,70l-7.85039,0.20557l-7.82888,0.61615l-7.7859,1.02503l-7.72158,1.43111l-7.6361,1.83327l-7.52969,2.2304l-7.40264,2.62141l-7.2553,3.00525l-7.08808,3.38084l-6.90143,3.74717z" data-paper-data="{&quot;fillable&quot;:true}" stroke="#2a2a3a" stroke-width="1.5"/><path d="M400,180l11.51391,0.3015l11.48235,0.90368l11.41932,1.50338l11.32499,2.09896l11.19962,2.68879l11.04355,3.27125l10.85721,3.84474l10.64111,4.40769l10.39585,4.95857l10.12209,5.49585l-35,60.62178l-6.90143,-3.74717l-7.08808,-3.38084l-7.2553,-3.00525l-7.40264,-2.62141l-7.52969,-2.2304l-7.6361,-1.83327l-7.72158,-1.43111l-7.7859,-1.02503l-7.82888,-0.61615l-7.85039,-0.20557z" data-paper-data="{&quot;fillable&quot;:true}" stroke="#2a2a3a" stroke-width="1.5"/><path d="M510,209.47441l9.82059,6.01806l9.49217,6.52379l9.13773,7.01163l8.75825,7.48025l8.35476,7.92837l7.92837,8.35476l7.48025,8.75825l7.01163,9.13773l6.52379,9.49217l6.01806,9.82059l-60.62178,35l-4.10323,-6.69586l-4.44804,-6.47193l-4.78065,-6.23027l-5.10017,-5.97153l-5.40571,-5.69643l-5.69643,-5.40571l-5.97153,-5.10017l-6.23027,-4.78065l-6.47193,-4.44804l-6.69586,-4.10323z" data-paper-data="{&quot;fillable&quot;:true}" stroke="#2a2a3a" stroke-width="1.5"/><path d="M590.52559,290l5.49585,10.12209l4.95857,10.39585l4.40769,10.64111l3.84474,10.85721l3.27125,11.04355l2.68879,11.19962l2.09896,11.32499l1.50338,11.41932l0.90368,11.48235l0.3015,11.51391h-70l-0.20557,-7.85039l-0.61615,-7.82888l-1.02503,-7.7859l-1.43111,-7.72158l-1.83327,-7.6361l-2.2304,-7.52969l-2.62141,-7.40264l-3.00525,-7.2553l-3.38084,-7.08808l-3.74717,-6.90143z" data-paper-data="{&quot;fillable&quot;:true}" stroke="#2a2a3a" stroke-width="1.5"/><path d="M578.69628,441.88152l8.22899,-5.32624l-2.52265,9.47214l7.60845,6.18034l-9.78808,0.52786l-3.52671,9.1459l-3.52671,-9.1459l-9.78808,-0.52786l7.60845,-6.18034l-2.52265,-9.47214z" data-paper-data="{&quot;fillable&quot;:true}" stroke="#2a2a3a" stroke-width="1.5"/><path d="M520.81475,530.81475c0,-5.52285 4.47715,-10 10,-10c5.52285,0 10,4.47715 10,10c0,5.52285 -4.47715,10 -10,10c-5.52285,0 -10,-4.47715 -10,-10z" data-paper-data="{&quot;fillable&quot;:true}" stroke="#2a2a3a" stroke-width="1.5"/><path d="M527.81475,528.81475c0,-4.41828 3.58172,-8 8,-8c4.41828,0 8,3.58172 8,8c0,4.41828 -3.58172,8 -8,8c-4.41828,0 -8,-3.58172 -8,-8z" data-paper-data="{&quot;fillable&quot;:true}" stroke="#2a2a3a" stroke-width="1.5"/><path d="M447.88152,572.69628l8.22899,-5.32624l-2.52265,9.47214l7.60845,6.18034l-9.78808,0.52786l-3.52671,9.1459l-3.52671,-9.1459l-9.78808,-0.52786l7.60845,-6.18034l-2.52265,-9.47214z" data-paper-data="{&quot;fillable&quot;:true}" stroke="#2a2a3a" stroke-width="1.5"/><path d="M342.11848,578.69628c0,-5.52285 4.47715,-10 10,-10c5.52285,0 10,4.47715 10,10c0,5.52285 -4.47715,10 -10,10c-5.52285,0 -10,-4.47715 -10,-10z" data-paper-data="{&quot;fillable&quot;:true}" stroke="#2a2a3a" stroke-width="1.5"/><path d="M349.11848,576.69628c0,-4.41828 3.58172,-8 8,-8c4.41828,0 8,3.58172 8,8c0,4.41828 -3.58172,8 -8,8c-4.41828,0 -8,-3.58172 -8,-8z" data-paper-data="{&quot;fillable&quot;:true}" stroke="#2a2a3a" stroke-width="1.5"/><path d="M269.18525,524.81475l8.22899,-5.32624l-2.52265,9.47214l7.60845,6.18034l-9.78808,0.52786l-3.52671,9.1459l-3.52671,-9.1459l-9.78808,-0.52786l7.60845,-6.18034l-2.52265,-9.47214z" data-paper-data="{&quot;fillable&quot;:true}" stroke="#2a2a3a" stroke-width="1.5"/><path d="M211.30372,447.88152c0,-5.52285 4.47715,-10 10,-10c5.52285,0 10,4.47715 10,10c0,5.52285 -4.47715,10 -10,10c-5.52285,0 -10,-4.47715 -10,-10z" data-paper-data="{&quot;fillable&quot;:true}" stroke="#2a2a3a" stroke-width="1.5"/><path d="M218.30372,445.88152c0,-4.41828 3.58172,-8 8,-8c4.41828,0 8,3.58172 8,8c0,4.41828 -3.58172,8 -8,8c-4.41828,0 -8,-3.58172 -8,-8z" data-paper-data="{&quot;fillable&quot;:true}" stroke="#2a2a3a" stroke-width="1.5"/><path d="M221.30372,346.11848l8.22899,-5.32624l-2.52265,9.47214l7.60845,6.18034l-9.78808,0.52786l-3.52671,9.1459l-3.52671,-9.1459l-9.78808,-0.52786l7.60845,-6.18034l-2.52265,-9.47214z" data-paper-data="{&quot;fillable&quot;:true}" stroke="#2a2a3a" stroke-width="1.5"/><path d="M259.18525,269.18525c0,-5.52285 4.47715,-10 10,-10c5.52285,0 10,4.47715 10,10c0,5.52285 -4.47715,10 -10,10c-5.52285,0 -10,-4.47715 -10,-10z" data-paper-data="{&quot;fillable&quot;:true}" stroke="#2a2a3a" stroke-width="1.5"/><path d="M266.18525,267.18525c0,-4.41828 3.58172,-8 8,-8c4.41828,0 8,3.58172 8,8c0,4.41828 -3.58172,8 -8,8c-4.41828,0 -8,-3.58172 -8,-8z" data-paper-data="{&quot;fillable&quot;:true}" stroke="#2a2a3a" stroke-width="1.5"/><path d="M352.11848,215.30372l8.22899,-5.32624l-2.52265,9.47214l7.60845,6.18034l-9.78808,0.52786l-3.52671,9.1459l-3.52671,-9.1459l-9.78808,-0.52786l7.60845,-6.18034l-2.52265,-9.47214z" data-paper-data="{&quot;fillable&quot;:true}" stroke="#2a2a3a" stroke-width="1.5"/><path d="M437.88152,221.30372c0,-5.52285 4.47715,-10 10,-10c5.52285,0 10,4.47715 10,10c0,5.52285 -4.47715,10 -10,10c-5.52285,0 -10,-4.47715 -10,-10z" data-paper-data="{&quot;fillable&quot;:true}" stroke="#2a2a3a" stroke-width="1.5"/><path d="M444.88152,219.30372c0,-4.41828 3.58172,-8 8,-8c4.41828,0 8,3.58172 8,8c0,4.41828 -3.58172,8 -8,8c-4.41828,0 -8,-3.58172 -8,-8z" data-paper-data="{&quot;fillable&quot;:true}" stroke="#2a2a3a" stroke-width="1.5"/><path d="M530.81475,263.18525l8.22899,-5.32624l-2.52265,9.47214l7.60845,6.18034l-9.78808,0.52786l-3.52671,9.1459l-3.52671,-9.1459l-9.78808,-0.52786l7.60845,-6.18034l-2.52265,-9.47214z" data-paper-data="{&quot;fillable&quot;:true}" stroke="#2a2a3a" stroke-width="1.5"/><path d="M568.69628,352.11848c0,-5.52285 4.47715,-10 10,-10c5.52285,0 10,4.47715 10,10c0,5.52285 -4.47715,10 -10,10c-5.52285,0 -10,-4.47715 -10,-10z" data-paper-data="{&quot;fillable&quot;:true}" stroke="#2a2a3a" stroke-width="1.5"/><path d="M575.69628,350.11848c0,-4.41828 3.58172,-8 8,-8c4.41828,0 8,3.58172 8,8c0,4.41828 -3.58172,8 -8,8c-4.41828,0 -8,-3.58172 -8,-8z" data-paper-data="{&quot;fillable&quot;:true}" stroke="#2a2a3a" stroke-width="1.5"/><path d="M561,400c0,-2.20914 1.79086,-4 4,-4c2.20914,0 4,1.79086 4,4c0,2.20914 -1.79086,4 -4,4c-2.20914,0 -4,-1.79086 -4,-4z" data-paper-data="{&quot;fillable&quot;:true}" stroke="#2a2a3a" stroke-width="1.5"/><path d="M555.37776,442.70514c0,-2.20914 1.79086,-4 4,-4c2.20914,0 4,1.79086 4,4c0,2.20914 -1.79086,4 -4,4c-2.20914,0 -4,-1.79086 -4,-4z" data-paper-data="{&quot;fillable&quot;:true}" stroke="#2a2a3a" stroke-width="1.5"/><path d="M538.89419,482.5c0,-2.20914 1.79086,-4 4,-4c2.20914,0 4,1.79086 4,4c0,2.20914 -1.79086,4 -4,4c-2.20914,0 -4,-1.79086 -4,-4z" data-paper-data="{&quot;fillable&quot;:true}" stroke="#2a2a3a" stroke-width="1.5"/><path d="M512.67262,516.67262c0,-2.20914 1.79086,-4 4,-4c2.20914,0 4,1.79086 4,4c0,2.20914 -1.79086,4 -4,4c-2.20914,0 -4,-1.79086 -4,-4z" data-paper-data="{&quot;fillable&quot;:true}" stroke="#2a2a3a" stroke-width="1.5"/><path d="M478.5,542.89419c0,-2.20914 1.79086,-4 4,-4c2.20914,0 4,1.79086 4,4c0,2.20914 -1.79086,4 -4,4c-2.20914,0 -4,-1.79086 -4,-4z" data-paper-data="{&quot;fillable&quot;:true}" stroke="#2a2a3a" stroke-width="1.5"/><path d="M438.70514,559.37776c0,-2.20914 1.79086,-4 4,-4c2.20914,0 4,1.79086 4,4c0,2.20914 -1.79086,4 -4,4c-2.20914,0 -4,-1.79086 -4,-4z" data-paper-data="{&quot;fillable&quot;:true}" stroke="#2a2a3a" stroke-width="1.5"/><path d="M396,565c0,-2.20914 1.79086,-4 4,-4c2.20914,0 4,1.79086 4,4c0,2.20914 -1.79086,4 -4,4c-2.20914,0 -4,-1.79086 -4,-4z" data-paper-data="{&quot;fillable&quot;:true}" stroke="#2a2a3a" stroke-width="1.5"/><path d="M353.29486,559.37776c0,-2.20914 1.79086,-4 4,-4c2.20914,0 4,1.79086 4,4c0,2.20914 -1.79086,4 -4,4c-2.20914,0 -4,-1.79086 -4,-4z" data-paper-data="{&quot;fillable&quot;:true}" stroke="#2a2a3a" stroke-width="1.5"/><path d="M313.5,542.89419c0,-2.20914 1.79086,-4 4,-4c2.20914,0 4,1.79086 4,4c0,2.20914 -1.79086,4 -4,4c-2.20914,0 -4,-1.79086 -4,-4z" data-paper-data="{&quot;fillable&quot;:true}" stroke="#2a2a3a" stroke-width="1.5"/><path d="M279.32738,516.67262c0,-2.20914 1.79086,-4 4,-4c2.20914,0 4,1.79086 4,4c0,2.20914 -1.79086,4 -4,4c-2.20914,0 -4,-1.79086 -4,-4z" data-paper-data="{&quot;fillable&quot;:true}" stroke="#2a2a3a" stroke-width="1.5"/><path d="M253.10581,482.5c0,-2.20914 1.79086,-4 4,-4c2.20914,0 4,1.79086 4,4c0,2.20914 -1.79086,4 -4,4c-2.20914,0 -4,-1.79086 -4,-4z" data-paper-data="{&quot;fillable&quot;:true}" stroke="#2a2a3a" stroke-width="1.5"/><path d="M236.62224,442.70514c0,-2.20914 1.79086,-4 4,-4c2.20914,0 4,1.79086 4,4c0,2.20914 -1.79086,4 -4,4c-2.20914,0 -4,-1.79086 -4,-4z" data-paper-data="{&quot;fillable&quot;:true}" stroke="#2a2a3a" stroke-width="1.5"/><path d="M231,400c0,-2.20914 1.79086,-4 4,-4c2.20914,0 4,1.79086 4,4c0,2.20914 -1.79086,4 -4,4c-2.20914,0 -4,-1.79086 -4,-4z" data-paper-data="{&quot;fillable&quot;:true}" stroke="#2a2a3a" stroke-width="1.5"/><path d="M236.62224,357.29486c0,-2.20914 1.79086,-4 4,-4c2.20914,0 4,1.79086 4,4c0,2.20914 -1.79086,4 -4,4c-2.20914,0 -4,-1.79086 -4,-4z" data-paper-data="{&quot;fillable&quot;:true}" stroke="#2a2a3a" stroke-width="1.5"/><path d="M253.10581,317.5c0,-2.20914 1.79086,-4 4,-4c2.20914,0 4,1.79086 4,4c0,2.20914 -1.79086,4 -4,4c-2.20914,0 -4,-1.79086 -4,-4z" data-paper-data="{&quot;fillable&quot;:true}" stroke="#2a2a3a" stroke-width="1.5"/><path d="M279.32738,283.32738c0,-2.20914 1.79086,-4 4,-4c2.20914,0 4,1.79086 4,4c0,2.20914 -1.79086,4 -4,4c-2.20914,0 -4,-1.79086 -4,-4z" data-paper-data="{&quot;fillable&quot;:true}" stroke="#2a2a3a" stroke-width="1.5"/><path d="M313.5,257.10581c0,-2.20914 1.79086,-4 4,-4c2.20914,0 4,1.79086 4,4c0,2.20914 -1.79086,4 -4,4c-2.20914,0 -4,-1.79086 -4,-4z" data-paper-data="{&quot;fillable&quot;:true}" stroke="#2a2a3a" stroke-width="1.5"/><path d="M353.29486,240.62224c0,-2.20914 1.79086,-4 4,-4c2.20914,0 4,1.79086 4,4c0,2.20914 -1.79086,4 -4,4c-2.20914,0 -4,-1.79086 -4,-4z" data-paper-data="{&quot;fillable&quot;:true}" stroke="#2a2a3a" stroke-width="1.5"/><path d="M396,235c0,-2.20914 1.79086,-4 4,-4c2.20914,0 4,1.79086 4,4c0,2.20914 -1.79086,4 -4,4c-2.20914,0 -4,-1.79086 -4,-4z" data-paper-data="{&quot;fillable&quot;:true}" stroke="#2a2a3a" stroke-width="1.5"/><path d="M438.70514,240.62224c0,-2.20914 1.79086,-4 4,-4c2.20914,0 4,1.79086 4,4c0,2.20914 -1.79086,4 -4,4c-2.20914,0 -4,-1.79086 -4,-4z" data-paper-data="{&quot;fillable&quot;:true}" stroke="#2a2a3a" stroke-width="1.5"/><path d="M478.5,257.10581c0,-2.20914 1.79086,-4 4,-4c2.20914,0 4,1.79086 4,4c0,2.20914 -1.79086,4 -4,4c-2.20914,0 -4,-1.79086 -4,-4z" data-paper-data="{&quot;fillable&quot;:true}" stroke="#2a2a3a" stroke-width="1.5"/><path d="M512.67262,283.32738c0,-2.20914 1.79086,-4 4,-4c2.20914,0 4,1.79086 4,4c0,2.20914 -1.79086,4 -4,4c-2.20914,0 -4,-1.79086 -4,-4z" data-paper-data="{&quot;fillable&quot;:true}" stroke="#2a2a3a" stroke-width="1.5"/><path d="M538.89419,317.5c0,-2.20914 1.79086,-4 4,-4c2.20914,0 4,1.79086 4,4c0,2.20914 -1.79086,4 -4,4c-2.20914,0 -4,-1.79086 -4,-4z" data-paper-data="{&quot;fillable&quot;:true}" stroke="#2a2a3a" stroke-width="1.5"/><path d="M555.37776,357.29486c0,-2.20914 1.79086,-4 4,-4c2.20914,0 4,1.79086 4,4c0,2.20914 -1.79086,4 -4,4c-2.20914,0 -4,-1.79086 -4,-4z" data-paper-data="{&quot;fillable&quot;:true}" stroke="#2a2a3a" stroke-width="1.5"/><path d="M550,400l-0.20557,7.85039l-0.61615,7.82888l-1.02503,7.7859l-1.43111,7.72158l-1.83327,7.6361l-2.2304,7.52969l-2.62141,7.40264l-3.00525,7.2553l-3.38084,7.08808l-3.74717,6.90143l-51.96152,-30l2.2483,-4.14086l2.0285,-4.25285l1.80315,-4.35318l1.57285,-4.44159l1.33824,-4.51782l1.09996,-4.58166l0.85867,-4.63295l0.61502,-4.67154l0.36969,-4.69733l0.12334,-4.71024z" data-paper-data="{&quot;fillable&quot;:true}" stroke="#2a2a3a" stroke-width="1.5"/><path d="M529.90381,475l-4.10323,6.69586l-4.44804,6.47193l-4.78065,6.23027l-5.10017,5.97153l-5.40571,5.69643l-5.69643,5.40571l-5.97153,5.10017l-6.23027,4.78065l-6.47193,4.44804l-6.69586,4.10323l-30,-51.96152l4.01751,-2.46194l3.88316,-2.66882l3.73816,-2.86839l3.58292,-3.0601l3.41786,-3.24342l3.24342,-3.41786l3.0601,-3.58292l2.86839,-3.73816l2.66882,-3.88316l2.46194,-4.01751z" data-paper-data="{&quot;fillable&quot;:true}" stroke="#2a2a3a" stroke-width="1.5"/><path d="M475,529.90381l-6.90143,3.74717l-7.08808,3.38084l-7.2553,3.00525l-7.40264,2.62141l-7.52969,2.2304l-7.6361,1.83327l-7.72158,1.43111l-7.7859,1.02503l-7.82888,0.61615l-7.85039,0.20557v-60l4.71024,-0.12334l4.69733,-0.36969l4.67154,-0.61502l4.63295,-0.85867l4.58166,-1.09996l4.51782,-1.33824l4.44159,-1.57285l4.35318,-1.80315l4.25285,-2.0285l4.14086,-2.2483z" data-paper-data="{&quot;fillable&quot;:true}" stroke="#2a2a3a" stroke-width="1.5"/><path d="M400,550l-7.85039,-0.20557l-7.82888,-0.61615l-7.7859,-1.02503l-7.72158,-1.43111l-7.6361,-1.83327l-7.52969,-2.2304l-7.40264,-2.62141l-7.2553,-3.00525l-7.08808,-3.38084l-6.90143,-3.74717l30,-51.96152l4.14086,2.2483l4.25285,2.0285l4.35318,1.80315l4.44159,1.57285l4.51782,1.33824l4.58166,1.09996l4.63295,0.85867l4.67154,0.61502l4.69733,0.36969l4.71024,0.12334z" data-paper-data="{&quot;fillable&quot;:true}" stroke="#2a2a3a" stroke-width="1.5"/><path d="M325,529.90381l-6.69586,-4.10323l-6.47193,-4.44804l-6.23027,-4.78065l-5.97153,-5.10017l-5.69643,-5.40571l-5.40571,-5.69643l-5.10017,-5.97153l-4.78065,-6.23027l-4.44804,-6.47193l-4.10323,-6.69586l51.96152,-30l2.46194,4.01751l2.66882,3.88316l2.86839,3.73816l3.0601,3.58292l3.24342,3.41786l3.41786,3.24342l3.58292,3.0601l3.73816,2.86839l3.88316,2.66882l4.01751,2.46194z" data-paper-data="{&quot;fillable&quot;:true}" stroke="#2a2a3a" stroke-width="1.5"/><path d="M270.09619,475l-3.74717,-6.90143l-3.38084,-7.08808l-3.00525,-7.2553l-2.62141,-7.40264l-2.2304,-7.52969l-1.83327,-7.6361l-1.43111,-7.72158l-1.02503,-7.7859l-0.61615,-7.82888l-0.20557,-7.85039h60l0.12334,4.71024l0.36969,4.69733l0.61502,4.67154l0.85867,4.63295l1.09996,4.58166l1.33824,4.51782l1.57285,4.44159l1.80315,4.35318l2.0285,4.25285l2.2483,4.14086z" data-paper-data="{&quot;fillable&quot;:true}" stroke="#2a2a3a" stroke-width="1.5"/><path d="M250,400l0.20557,-7.85039l0.61615,-7.82888l1.02503,-7.7859l1.43111,-7.72158l1.83327,-7.6361l2.2304,-7.52969l2.62141,-7.40264l3.00525,-7.2553l3.38084,-7.08808l3.74717,-6.90143l51.96152,30l-2.2483,4.14086l-2.0285,4.25285l-1.80315,4.35318l-1.57285,4.44159l-1.33824,4.51782l-1.09996,4.58166l-0.85867,4.63295l-0.61502,4.67154l-0.36969,4.69733l-0.12334,4.71024z" data-paper-data="{&quot;fillable&quot;:true}" stroke="#2a2a3a" stroke-width="1.5"/><path d="M270.09619,325l4.10323,-6.69586l4.44804,-6.47193l4.78065,-6.23027l5.10017,-5.97153l5.40571,-5.69643l5.69643,-5.40571l5.97153,-5.10017l6.23027,-4.78065l6.47193,-4.44804l6.69586,-4.10323l30,51.96152l-4.01751,2.46194l-3.88316,2.66882l-3.73816,2.86839l-3.58292,3.0601l-3.41786,3.24342l-3.24342,3.41786l-3.0601,3.58292l-2.86839,3.73816l-2.66882,3.88316l-2.46194,4.01751z" data-paper-data="{&quot;fillable&quot;:true}" stroke="#2a2a3a" stroke-width="1.5"/><path d="M325,270.09619l6.90143,-3.74717l7.08808,-3.38084l7.2553,-3.00525l7.40264,-2.62141l7.52969,-2.2304l7.6361,-1.83327l7.72158,-1.43111l7.7859,-1.02503l7.82888,-0.61615l7.85039,-0.20557v60l-4.71024,0.12334l-4.69733,0.36969l-4.67154,0.61502l-4.63295,0.85867l-4.58166,1.09996l-4.51782,1.33824l-4.44159,1.57285l-4.35318,1.80315l-4.25285,2.0285l-4.14086,2.2483z" data-paper-data="{&quot;fillable&quot;:true}" stroke="#2a2a3a" stroke-width="1.5"/><path d="M400,250l7.85039,0.20557l7.82888,0.61615l7.7859,1.02503l7.72158,1.43111l7.6361,1.83327l7.52969,2.2304l7.40264,2.62141l7.2553,3.00525l7.08808,3.38084l6.90143,3.74717l-30,51.96152l-4.14086,-2.2483l-4.25285,-2.0285l-4.35318,-1.80315l-4.44159,-1.57285l-4.51782,-1.33824l-4.58166,-1.09996l-4.63295,-0.85867l-4.67154,-0.61502l-4.69733,-0.36969l-4.71024,-0.12334z" data-paper-data="{&quot;fillable&quot;:true}" stroke="#2a2a3a" stroke-width="1.5"/><path d="M475,270.09619l6.69586,4.10323l6.47193,4.44804l6.23027,4.78065l5.97153,5.10017l5.69643,5.40571l5.40571,5.69643l5.10017,5.97153l4.78065,6.23027l4.44804,6.47193l4.10323,6.69586l-51.96152,30l-2.46194,-4.01751l-2.66882,-3.88316l-2.86839,-3.73816l-3.0601,-3.58292l-3.24342,-3.41786l-3.41786,-3.24342l-3.58292,-3.0601l-3.73816,-2.86839l-3.88316,-2.66882l-4.01751,-2.46194z" data-paper-data="{&quot;fillable&quot;:true}" stroke="#2a2a3a" stroke-width="1.5"/><path d="M529.90381,325l3.74717,6.90143l3.38084,7.08808l3.00525,7.2553l2.62141,7.40264l2.2304,7.52969l1.83327,7.6361l1.43111,7.72158l1.02503,7.7859l0.61615,7.82888l0.20557,7.85039l-60,0l-0.12334,-4.71024l-0.36969,-4.69733l-0.61502,-4.67154l-0.85867,-4.63295l-1.09996,-4.58166l-1.33824,-4.51782l-1.57285,-4.44159l-1.80315,-4.35318l-2.0285,-4.25285l-2.2483,-4.14086z" data-paper-data="{&quot;fillable&quot;:true}" stroke="#2a2a3a" stroke-width="1.5"/><path d="M495,400c0,4 13.95692,11.69231 21.6,12c8.28,0.33333 26.4,-8 26.4,-12c0,-4 -18.12,-12.33333 -26.4,-12c-7.64308,0.30769 -21.6,8 -21.6,12z" data-paper-data="{&quot;fillable&quot;:true}" stroke="#2a2a3a" stroke-width="1.5"/><path d="M482.27241,447.5c-2,3.4641 6.24089,17.1043 12.70615,21.1923c7.00402,4.42867 26.86307,6.2718 28.86307,2.8077c2,-3.4641 -9.52572,-19.74098 -16.86307,-23.5923c-6.77295,-3.55507 -22.70615,-3.8718 -24.70615,-0.4077z" data-paper-data="{&quot;fillable&quot;:true}" stroke="#2a2a3a" stroke-width="1.5"/><path d="M447.5,482.27241c-3.4641,2 -3.14738,17.9332 0.4077,24.70615c3.85133,7.33735 20.1282,18.86307 23.5923,16.86307c3.4641,-2 1.62098,-21.85905 -2.8077,-28.86307c-4.08801,-6.46526 -17.7282,-14.70615 -21.1923,-12.70615z" data-paper-data="{&quot;fillable&quot;:true}" stroke="#2a2a3a" stroke-width="1.5"/><path d="M400,495c-4,0 -11.69231,13.95692 -12,21.6c-0.33333,8.28 8,26.4 12,26.4c4,0 12.33333,-18.12 12,-26.4c-0.30769,-7.64308 -8,-21.6 -12,-21.6z" data-paper-data="{&quot;fillable&quot;:true}" stroke="#2a2a3a" stroke-width="1.5"/><path d="M352.5,482.27241c-3.4641,-2 -17.1043,6.24089 -21.1923,12.70615c-4.42867,7.00402 -6.2718,26.86307 -2.8077,28.86307c3.4641,2 19.74098,-9.52572 23.5923,-16.86307c3.55507,-6.77295 3.8718,-22.70615 0.4077,-24.70615z" data-paper-data="{&quot;fillable&quot;:true}" stroke="#2a2a3a" stroke-width="1.5"/><path d="M317.72759,447.5c-2,-3.4641 -17.9332,-3.14738 -24.70615,0.4077c-7.33735,3.85133 -18.86307,20.1282 -16.86307,23.5923c2,3.4641 21.85905,1.62098 28.86307,-2.8077c6.46526,-4.08801 14.70615,-17.7282 12.70615,-21.1923z" data-paper-data="{&quot;fillable&quot;:true}" stroke="#2a2a3a" stroke-width="1.5"/><path d="M305,400c0,-4 -13.95692,-11.69231 -21.6,-12c-8.28,-0.33333 -26.4,8 -26.4,12c0,4 18.12,12.33333 26.4,12c7.64308,-0.30769 21.6,-8 21.6,-12z" data-paper-data="{&quot;fillable&quot;:true}" stroke="#2a2a3a" stroke-width="1.5"/><path d="M317.72759,352.5c2,-3.4641 -6.24089,-17.1043 -12.70615,-21.1923c-7.00402,-4.42867 -26.86307,-6.2718 -28.86307,-2.8077c-2,3.4641 9.52572,19.74098 16.86307,23.5923c6.77295,3.55507 22.70615,3.8718 24.70615,0.4077z" data-paper-data="{&quot;fillable&quot;:true}" stroke="#2a2a3a" stroke-width="1.5"/><path d="M352.5,317.72759c3.4641,-2 3.14738,-17.9332 -0.4077,-24.70615c-3.85133,-7.33735 -20.1282,-18.86307 -23.5923,-16.86307c-3.4641,2 -1.62098,21.85905 2.8077,28.86307c4.08801,6.46526 17.7282,14.70615 21.1923,12.70615z" data-paper-data="{&quot;fillable&quot;:true}" stroke="#2a2a3a" stroke-width="1.5"/><path d="M400,305c4,0 11.69231,-13.95692 12,-21.6c0.33333,-8.28 -8,-26.4 -12,-26.4c-4,0 -12.33333,18.12 -12,26.4c0.30769,7.64308 8,21.6 12,21.6z" data-paper-data="{&quot;fillable&quot;:true}" stroke="#2a2a3a" stroke-width="1.5"/><path d="M447.5,317.72759c3.4641,2 17.1043,-6.24089 21.1923,-12.70615c4.42867,-7.00402 6.2718,-26.86307 2.8077,-28.86307c-3.4641,-2 -19.74098,9.52572 -23.5923,16.86307c-3.55507,6.77295 -3.8718,22.70615 -0.4077,24.70615z" data-paper-data="{&quot;fillable&quot;:true}" stroke="#2a2a3a" stroke-width="1.5"/><path d="M482.27241,352.5c2,3.4641 17.9332,3.14738 24.70615,-0.4077c7.33735,-3.85133 18.86307,-20.1282 16.86307,-23.5923c-2,-3.4641 -21.85905,-1.62098 -28.86307,2.8077c-6.46526,4.08801 -14.70615,17.7282 -12.70615,21.1923z" data-paper-data="{&quot;fillable&quot;:true}" stroke="#2a2a3a" stroke-width="1.5"/><path d="M490,400l-0.12334,4.71024l-0.36969,4.69733l-0.61502,4.67154l-0.85867,4.63295l-1.09996,4.58166l-1.33824,4.51782l-1.57285,4.44159l-1.80315,4.35318l-2.0285,4.25285l-2.2483,4.14086l-34.64102,-20l1.24906,-2.30048l1.12695,-2.36269l1.00175,-2.41843l0.8738,-2.46755l0.74347,-2.5099l0.61109,-2.54537l0.47704,-2.57386l0.34168,-2.5953l0.20538,-2.60963l0.06852,-2.6168z" data-paper-data="{&quot;fillable&quot;:true}" stroke="#2a2a3a" stroke-width="1.5"/><path d="M477.94229,445l-2.46194,4.01751l-2.66882,3.88316l-2.86839,3.73816l-3.0601,3.58292l-3.24342,3.41786l-3.41786,3.24342l-3.58292,3.0601l-3.73816,2.86839l-3.88316,2.66882l-4.01751,2.46194l-20,-34.64102l2.23195,-1.36774l2.15731,-1.48268l2.07676,-1.59355l1.99051,-1.70006l1.89881,-1.8019l1.8019,-1.89881l1.70006,-1.99051l1.59355,-2.07676l1.48268,-2.15731l1.36774,-2.23195z" data-paper-data="{&quot;fillable&quot;:true}" stroke="#2a2a3a" stroke-width="1.5"/><path d="M445,477.94229l-4.14086,2.2483l-4.25285,2.0285l-4.35318,1.80315l-4.44159,1.57285l-4.51782,1.33824l-4.58166,1.09996l-4.63295,0.85867l-4.67154,0.61502l-4.69733,0.36969l-4.71024,0.12334v-40l2.6168,-0.06852l2.60963,-0.20538l2.5953,-0.34168l2.57386,-0.47704l2.54537,-0.61109l2.5099,-0.74347l2.46755,-0.8738l2.41843,-1.00175l2.36269,-1.12695l2.30048,-1.24906z" data-paper-data="{&quot;fillable&quot;:true}" stroke="#2a2a3a" stroke-width="1.5"/><path d="M400,490l-4.71024,-0.12334l-4.69733,-0.36969l-4.67154,-0.61502l-4.63295,-0.85867l-4.58166,-1.09996l-4.51782,-1.33824l-4.44159,-1.57285l-4.35318,-1.80315l-4.25285,-2.0285l-4.14086,-2.2483l20,-34.64102l2.30048,1.24906l2.36269,1.12695l2.41843,1.00175l2.46755,0.8738l2.5099,0.74347l2.54537,0.61109l2.57386,0.47704l2.5953,0.34168l2.60963,0.20538l2.6168,0.06852z" data-paper-data="{&quot;fillable&quot;:true}" stroke="#2a2a3a" stroke-width="1.5"/><path d="M355,477.94229l-4.01751,-2.46194l-3.88316,-2.66882l-3.73816,-2.86839l-3.58292,-3.0601l-3.41786,-3.24342l-3.24342,-3.41786l-3.0601,-3.58292l-2.86839,-3.73816l-2.66882,-3.88316l-2.46194,-4.01751l34.64102,-20l1.36774,2.23195l1.48268,2.15731l1.59355,2.07676l1.70006,1.99051l1.8019,1.89881l1.89881,1.8019l1.99051,1.70006l2.07676,1.59355l2.15731,1.48268l2.23195,1.36774z" data-paper-data="{&quot;fillable&quot;:true}" stroke="#2a2a3a" stroke-width="1.5"/><path d="M322.05771,445l-2.2483,-4.14086l-2.0285,-4.25285l-1.80315,-4.35318l-1.57285,-4.44159l-1.33824,-4.51782l-1.09996,-4.58166l-0.85867,-4.63295l-0.61502,-4.67154l-0.36969,-4.69733l-0.12334,-4.71024h40l0.06852,2.6168l0.20538,2.60963l0.34168,2.5953l0.47704,2.57386l0.61109,2.54537l0.74347,2.5099l0.8738,2.46755l1.00175,2.41843l1.12695,2.36269l1.24906,2.30048z" data-paper-data="{&quot;fillable&quot;:true}" stroke="#2a2a3a" stroke-width="1.5"/><path d="M310,400l0.12334,-4.71024l0.36969,-4.69733l0.61502,-4.67154l0.85867,-4.63295l1.09996,-4.58166l1.33824,-4.51782l1.57285,-4.44159l1.80315,-4.35318l2.0285,-4.25285l2.2483,-4.14086l34.64102,20l-1.24906,2.30048l-1.12695,2.36269l-1.00175,2.41843l-0.8738,2.46755l-0.74347,2.5099l-0.61109,2.54537l-0.47704,2.57386l-0.34168,2.5953l-0.20538,2.60963l-0.06852,2.6168z" data-paper-data="{&quot;fillable&quot;:true}" stroke="#2a2a3a" stroke-width="1.5"/><path d="M322.05771,355l2.46194,-4.01751l2.66882,-3.88316l2.86839,-3.73816l3.0601,-3.58292l3.24342,-3.41786l3.41786,-3.24342l3.58292,-3.0601l3.73816,-2.86839l3.88316,-2.66882l4.01751,-2.46194l20,34.64102l-2.23195,1.36774l-2.15731,1.48268l-2.07676,1.59355l-1.99051,1.70006l-1.89881,1.8019l-1.8019,1.89881l-1.70006,1.99051l-1.59355,2.07676l-1.48268,2.15731l-1.36774,2.23195z" data-paper-data="{&quot;fillable&quot;:true}" stroke="#2a2a3a" stroke-width="1.5"/><path d="M355,322.05771l4.14086,-2.2483l4.25285,-2.0285l4.35318,-1.80315l4.44159,-1.57285l4.51782,-1.33824l4.58166,-1.09996l4.63295,-0.85867l4.67154,-0.61502l4.69733,-0.36969l4.71024,-0.12334v40l-2.6168,0.06852l-2.60963,0.20538l-2.5953,0.34168l-2.57386,0.47704l-2.54537,0.61109l-2.5099,0.74347l-2.46755,0.8738l-2.41843,1.00175l-2.36269,1.12695l-2.30048,1.24906z" data-paper-data="{&quot;fillable&quot;:true}" stroke="#2a2a3a" stroke-width="1.5"/><path d="M400,310l4.71024,0.12334l4.69733,0.36969l4.67154,0.61502l4.63295,0.85867l4.58166,1.09996l4.51782,1.33824l4.44159,1.57285l4.35318,1.80315l4.25285,2.0285l4.14086,2.2483l-20,34.64102l-2.30048,-1.24906l-2.36269,-1.12695l-2.41843,-1.00175l-2.46755,-0.8738l-2.5099,-0.74347l-2.54537,-0.61109l-2.57386,-0.47704l-2.5953,-0.34168l-2.60963,-0.20538l-2.6168,-0.06852z" data-paper-data="{&quot;fillable&quot;:true}" stroke="#2a2a3a" stroke-width="1.5"/><path d="M445,322.05771l4.01751,2.46194l3.88316,2.66882l3.73816,2.86839l3.58292,3.0601l3.41786,3.24342l3.24342,3.41786l3.0601,3.58292l2.86839,3.73816l2.66882,3.88316l2.46194,4.01751l-34.64102,20l-1.36774,-2.23195l-1.48268,-2.15731l-1.59355,-2.07676l-1.70006,-1.99051l-1.8019,-1.89881l-1.89881,-1.8019l-1.99051,-1.70006l-2.07676,-1.59355l-2.15731,-1.48268l-2.23195,-1.36774z" data-paper-data="{&quot;fillable&quot;:true}" stroke="#2a2a3a" stroke-width="1.5"/><path d="M477.94229,355l2.2483,4.14086l2.0285,4.25285l1.80315,4.35318l1.57285,4.44159l1.33824,4.51782l1.09996,4.58166l0.85867,4.63295l0.61502,4.67154l0.36969,4.69733l0.12334,4.71024h-40l-0.06852,-2.6168l-0.20538,-2.60963l-0.34168,-2.5953l-0.47704,-2.57386l-0.61109,-2.54537l-0.74347,-2.5099l-0.8738,-2.46755l-1.00175,-2.41843l-1.12695,-2.36269l-1.24906,-2.30048z" data-paper-data="{&quot;fillable&quot;:true}" stroke="#2a2a3a" stroke-width="1.5"/><path d="M453.12592,414.23505c-0.60391,2.25383 3.87097,7.59166 6.8816,9.09085c2.93917,1.46361 7.22138,0.22745 10.86691,0.01301c3.71892,-0.21876 10.86691,0.01301 11.22926,-1.33929c0.36235,-1.3523 -5.94388,-4.72558 -9.05518,-6.77449c-3.0499,-2.00848 -6.14033,-5.22013 -9.41753,-5.42219c-3.35687,-0.20697 -9.90115,2.17828 -10.50507,4.43211z" data-paper-data="{&quot;fillable&quot;:true}" stroke="#2a2a3a" stroke-width="1.5"/><path d="M438.89087,438.89087c-1.64992,1.64992 -0.44347,8.51006 1.41421,11.31371c1.81359,2.7371 6.14018,3.80767 9.40452,5.44472c3.33006,1.67001 9.40452,5.44472 10.39447,4.45477c0.98995,-0.98995 -2.78476,-7.06441 -4.45477,-10.39447c-1.63705,-3.26434 -2.70762,-7.59093 -5.44472,-9.40452c-2.80365,-1.85768 -9.66379,-3.06413 -11.31371,-1.41421z" data-paper-data="{&quot;fillable&quot;:true}" stroke="#2a2a3a" stroke-width="1.5"/><path d="M414.23505,453.12592c-2.25383,0.60391 -4.63908,7.14819 -4.43211,10.50507c0.20206,3.2772 3.41372,6.36763 5.42219,9.41753c2.04891,3.1113 5.42219,9.41753 6.77449,9.05518c1.3523,-0.36235 1.12053,-7.51034 1.33929,-11.22926c0.21444,-3.64553 1.4506,-7.92775 -0.01301,-10.86691c-1.49919,-3.01063 -6.83703,-7.48551 -9.09085,-6.8816z" data-paper-data="{&quot;fillable&quot;:true}" stroke="#2a2a3a" stroke-width="1.5"/><path d="M385.76495,453.12592c-2.25383,-0.60391 -7.59166,3.87097 -9.09085,6.8816c-1.46361,2.93917 -0.22745,7.22138 -0.01301,10.86691c0.21876,3.71892 -0.01301,10.86691 1.33929,11.22926c1.3523,0.36235 4.72558,-5.94388 6.77449,-9.05518c2.00848,-3.0499 5.22013,-6.14033 5.42219,-9.41753c0.20697,-3.35687 -2.17828,-9.90115 -4.43211,-10.50507z" data-paper-data="{&quot;fillable&quot;:true}" stroke="#2a2a3a" stroke-width="1.5"/><path d="M361.10913,438.89087c-1.64992,-1.64992 -8.51006,-0.44347 -11.31371,1.41421c-2.7371,1.81359 -3.80767,6.14018 -5.44472,9.40452c-1.67001,3.33006 -5.44472,9.40452 -4.45477,10.39447c0.98995,0.98995 7.06441,-2.78476 10.39447,-4.45477c3.26434,-1.63705 7.59093,-2.70762 9.40452,-5.44472c1.85768,-2.80365 3.06413,-9.66379 1.41421,-11.31371z" data-paper-data="{&quot;fillable&quot;:true}" stroke="#2a2a3a" stroke-width="1.5"/><path d="M346.87408,414.23505c-0.60391,-2.25383 -7.14819,-4.63908 -10.50507,-4.43211c-3.2772,0.20206 -6.36763,3.41372 -9.41753,5.42219c-3.1113,2.04891 -9.41753,5.42219 -9.05518,6.77449c0.36235,1.3523 7.51034,1.12053 11.22926,1.33929c3.64553,0.21444 7.92775,1.4506 10.86691,-0.01301c3.01063,-1.49919 7.48551,-6.83703 6.8816,-9.09085z" data-paper-data="{&quot;fillable&quot;:true}" stroke="#2a2a3a" stroke-width="1.5"/><path d="M346.87408,385.76495c0.60391,-2.25383 -3.87097,-7.59166 -6.8816,-9.09085c-2.93917,-1.46361 -7.22138,-0.22745 -10.86691,-0.01301c-3.71892,0.21876 -10.86691,-0.01301 -11.22926,1.33929c-0.36235,1.3523 5.94388,4.72558 9.05518,6.77449c3.0499,2.00848 6.14033,5.22013 9.41753,5.42219c3.35687,0.20697 9.90115,-2.17828 10.50507,-4.43211z" data-paper-data="{&quot;fillable&quot;:true}" stroke="#2a2a3a" stroke-width="1.5"/><path d="M361.10913,361.10913c1.64992,-1.64992 0.44347,-8.51006 -1.41421,-11.31371c-1.81359,-2.7371 -6.14018,-3.80767 -9.40452,-5.44472c-3.33006,-1.67001 -9.40452,-5.44472 -10.39447,-4.45477c-0.98995,0.98995 2.78476,7.06441 4.45477,10.39447c1.63705,3.26434 2.70762,7.59093 5.44472,9.40452c2.80365,1.85768 9.66379,3.06413 11.31371,1.41421z" data-paper-data="{&quot;fillable&quot;:true}" stroke="#2a2a3a" stroke-width="1.5"/><path d="M385.76495,346.87408c2.25383,-0.60391 4.63908,-7.14819 4.43211,-10.50507c-0.20206,-3.2772 -3.41372,-6.36763 -5.42219,-9.41753c-2.04891,-3.1113 -5.42219,-9.41753 -6.77449,-9.05518c-1.3523,0.36235 -1.12053,7.51034 -1.33929,11.22926c-0.21444,3.64553 -1.4506,7.92775 0.01301,10.86691c1.49919,3.01063 6.83703,7.48551 9.09085,6.8816z" data-paper-data="{&quot;fillable&quot;:true}" stroke="#2a2a3a" stroke-width="1.5"/><path d="M414.23505,346.87408c2.25383,0.60391 7.59166,-3.87097 9.09085,-6.8816c1.46361,-2.93917 0.22745,-7.22138 0.01301,-10.86691c-0.21876,-3.71892 0.01301,-10.86691 -1.33929,-11.22926c-1.3523,-0.36235 -4.72558,5.94388 -6.77449,9.05518c-2.00848,3.0499 -5.22013,6.14033 -5.42219,9.41753c-0.20697,3.35687 2.17828,9.90115 4.43211,10.50507z" data-paper-data="{&quot;fillable&quot;:true}" stroke="#2a2a3a" stroke-width="1.5"/><path d="M438.89087,361.10913c1.64992,1.64992 8.51006,0.44347 11.31371,-1.41421c2.7371,-1.81359 3.80767,-6.14018 5.44472,-9.40452c1.67001,-3.33006 5.44472,-9.40452 4.45477,-10.39447c-0.98995,-0.98995 -7.06441,2.78476 -10.39447,4.45477c-3.26434,1.63705 -7.59093,2.70762 -9.40452,5.44472c-1.85768,2.80365 -3.06413,9.66379 -1.41421,11.31371z" data-paper-data="{&quot;fillable&quot;:true}" stroke="#2a2a3a" stroke-width="1.5"/><path d="M453.12592,385.76495c0.60391,2.25383 7.14819,4.63908 10.50507,4.43211c3.2772,-0.20206 6.36763,-3.41372 9.41753,-5.42219c3.1113,-2.04891 9.41753,-5.42219 9.05518,-6.77449c-0.36235,-1.3523 -7.51034,-1.12053 -11.22926,-1.33929c-3.64553,-0.21444 -7.92775,-1.4506 -10.86691,0.01301c-3.01063,1.49919 -7.48551,6.83703 -6.8816,9.09085z" data-paper-data="{&quot;fillable&quot;:true}" stroke="#2a2a3a" stroke-width="1.5"/><path d="M350,400c0,-27.61424 22.38576,-50 50,-50c27.61424,0 50,22.38576 50,50c0,27.61424 -22.38576,50 -50,50c-27.61424,0 -50,-22.38576 -50,-50z" data-paper-data="{&quot;fillable&quot;:true}" stroke="#2a2a3a" stroke-width="1.5"/><path d="M400,380l15.30734,-16.95518l-1.1652,22.81305l22.81305,-1.1652l-16.95518,15.30734l16.95518,15.30734l-22.81305,-1.1652l1.1652,22.81305l-15.30734,-16.95518l-15.30734,16.95518l1.1652,-22.81305l-22.81305,1.1652l16.95518,-15.30734l-16.95518,-15.30734l22.81305,1.1652l-1.1652,-22.81305z" data-paper-data="{&quot;fillable&quot;:true}" stroke="#2a2a3a" stroke-width="1.5"/><path d="M380,400c0,-11.04569 8.95431,-20 20,-20c11.04569,0 20,8.95431 20,20c0,11.04569 -8.95431,20 -20,20c-11.04569,0 -20,-8.95431 -20,-20z" data-paper-data="{&quot;fillable&quot;:true}" stroke="#2a2a3a" stroke-width="1.5"/><path d="M392,400c0,-4.41828 3.58172,-8 8,-8c4.41828,0 8,3.58172 8,8c0,4.41828 -3.58172,8 -8,8c-4.41828,0 -8,-3.58172 -8,-8z" data-paper-data="{&quot;fillable&quot;:true}" stroke="#2a2a3a" stroke-width="1.5"/><path d="M425,400l6,4l6,-4l-6,-4z" data-paper-data="{&quot;fillable&quot;:true}" stroke="#2a2a3a" stroke-width="1.5"/><path d="M417.67767,417.67767l1.41421,7.07107l7.07107,1.41421l-1.41421,-7.07107z" data-paper-data="{&quot;fillable&quot;:true}" stroke="#2a2a3a" stroke-width="1.5"/><path d="M400,425l-4,6l4,6l4,-6z" data-paper-data="{&quot;fillable&quot;:true}" stroke="#2a2a3a" stroke-width="1.5"/><path d="M382.32233,417.67767l-7.07107,1.41421l-1.41421,7.07107l7.07107,-1.41421z" data-paper-data="{&quot;fillable&quot;:true}" stroke="#2a2a3a" stroke-width="1.5"/><path d="M375,400l-6,-4l-6,4l6,4z" data-paper-data="{&quot;fillable&quot;:true}" stroke="#2a2a3a" stroke-width="1.5"/><path d="M382.32233,382.32233l-1.41421,-7.07107l-7.07107,-1.41421l1.41421,7.07107z" data-paper-data="{&quot;fillable&quot;:true}" stroke="#2a2a3a" stroke-width="1.5"/><path d="M400,375l4,-6l-4,-6l-4,6z" data-paper-data="{&quot;fillable&quot;:true}" stroke="#2a2a3a" stroke-width="1.5"/><path d="M417.67767,382.32233l7.07107,-1.41421l1.41421,-7.07107l-7.07107,1.41421z" data-paper-data="{&quot;fillable&quot;:true}" stroke="#2a2a3a" stroke-width="1.5"/></g></svg>